<svg width="24" height="24" viewBox="0 0 24 24" fill="none" xmlns="http://www.w3.org/2000/svg">
<path d="M0 12C0 5.37258 5.37258 0 12 0C18.6274 0 24 5.37258 24 12C24 18.6274 18.6274 24 12 24C5.37258 24 0 18.6274 0 12Z" fill="#9AE7FF"/>
<path d="M18.7539 18.7539C18.5898 18.918 18.3939 19 18.166 19C17.9382 19 17.7422 18.918 17.5781 18.7539L11.4395 12.6152L10.0039 14.0508V14.0645C10.168 14.2285 10.25 14.4268 10.25 14.6592C10.25 14.8916 10.168 15.0898 10.0039 15.2539C9.83984 15.418 9.6416 15.5 9.40918 15.5C9.17676 15.5 8.97852 15.418 8.81445 15.2539L5.24609 11.6855C5.08203 11.5215 5 11.3232 5 11.0908C5 10.8584 5.08203 10.6602 5.24609 10.4961C5.41016 10.332 5.6084 10.25 5.84082 10.25C6.07324 10.25 6.27148 10.332 6.43555 10.4961L6.44922 10.5098L10.5098 6.44922L10.4961 6.43555C10.332 6.27148 10.25 6.07324 10.25 5.84082C10.25 5.6084 10.332 5.41016 10.4961 5.24609C10.6602 5.08203 10.8584 5 11.0908 5C11.3232 5 11.5215 5.08203 11.6855 5.24609L15.2539 8.81445C15.418 8.97852 15.5 9.17676 15.5 9.40918C15.5 9.6416 15.418 9.83984 15.2539 10.0039C15.0898 10.168 14.8916 10.25 14.6592 10.25C14.4268 10.25 14.2285 10.168 14.0645 10.0039L14.0508 9.99023L12.6152 11.4258L18.7539 17.5781C18.918 17.7422 19 17.9382 19 18.166C19 18.3939 18.918 18.5898 18.7539 18.7539ZM9.60742 8.41797L8.43164 9.60742L10.9062 12.082L12.082 10.9062L9.60742 8.41797Z" fill="black"/>
</svg>
