<svg width="56" height="56" viewBox="0 0 56 56" fill="none" xmlns="http://www.w3.org/2000/svg">
<path d="M56 28C56 12.536 43.464 0 28 0C12.536 0 0 12.536 0 28C0 43.464 12.536 56 28 56C43.464 56 56 43.464 56 28Z" fill="#FFB986"/>
<path d="M38.5 16.8C37.3561 17.8948 35.9954 18.7375 34.5057 19.2738C32.9349 19.551 28.588 17.535 26.446 19.593C26.089 19.95 25.648 20.307 25.186 20.664C24.1779 20.223 22.624 19.551 21.49 18.9C20.356 18.249 17.5 16.8 17.5 16.8L11.2 24.15C11.2 24.15 12.754 26.25 13.72 27.636C14.35 28.56 15.127 29.9671 15.631 30.9121L14.917 31.752C14.746 32.0917 14.6844 32.476 14.7409 32.8521C14.7973 33.2282 14.9688 33.5775 15.232 33.852C15.5357 34.0797 15.9052 34.2025 16.2848 34.2017C16.6643 34.2009 17.0334 34.0767 17.3362 33.8479C17.2239 33.9793 17.1389 34.1318 17.0862 34.2964C17.0335 34.4611 17.0141 34.6346 17.0291 34.8068C17.0442 34.979 17.0934 35.1465 17.1739 35.2995C17.2543 35.4525 17.3645 35.588 17.4979 35.6979C17.8185 35.8852 18.1834 35.9836 18.5547 35.9828C18.9261 35.9821 19.2905 35.8823 19.6105 35.6938C19.3705 35.9928 19.2392 36.3645 19.2381 36.7479C19.2369 37.1313 19.366 37.5038 19.6042 37.8043C19.9137 37.9114 20.2439 37.9456 20.5688 37.904C20.8937 37.8625 21.2047 37.7464 21.4774 37.5648C21.3415 37.8864 21.3063 38.2415 21.3764 38.5834C21.4465 38.9253 21.6186 39.2379 21.8701 39.4801C22.2252 39.6378 22.6146 39.7029 23.0017 39.6691C23.3888 39.6353 23.761 39.5038 24.0835 39.2868L25.1671 38.3062C26.1583 39.2931 27.5254 39.9042 29.0352 39.9042L29.1634 39.9022C29.6609 39.8597 30.1376 39.6827 30.5423 39.39C30.947 39.0974 31.2645 38.7003 31.4608 38.2411C31.7673 38.3587 32.1159 38.4384 32.4855 38.4384C32.9811 38.4384 33.441 38.2957 33.8295 38.05C35.0581 37.2373 34.764 36.6073 34.764 36.6073C35.2009 36.7953 35.6861 36.8399 36.1499 36.7346C36.6137 36.6293 37.0321 36.3796 37.3449 36.0213C37.67 35.6888 37.875 35.2574 37.9275 34.7953C37.98 34.3332 37.877 33.8668 37.6348 33.4698C37.648 33.4778 37.6634 33.4814 37.6789 33.4804C38.563 33.4804 39.3316 32.9932 39.7326 32.275C39.93 31.7645 39.9967 31.2128 39.9267 30.67C39.8566 30.1272 39.6521 29.6106 39.3316 29.1669L39.3379 29.1775C41.0599 28.8414 40.9968 27.9804 41.8368 26.7204C42.6322 25.6922 43.6218 24.8303 44.7495 24.1836L38.5 16.8ZM38.3949 31.6261C37.4709 32.5501 36.757 32.151 35.1819 30.954C33.607 29.757 30.478 27.5101 30.478 27.5101C30.6061 28.1506 30.9022 28.707 31.3201 29.1501C31.99 29.904 33.985 31.626 34.93 32.508C35.518 33.054 37.03 34.146 36.148 34.986C35.266 35.826 34.5729 34.9861 33.1239 33.8101C31.6749 32.6341 28.441 29.736 28.441 29.736C28.4231 30.0138 28.4645 30.2923 28.5622 30.5529C28.6599 30.8135 28.8119 31.0505 29.0079 31.248C29.365 31.668 31.36 33.6 32.2 34.482C33.0399 35.364 33.775 35.889 33.0609 36.5821C32.347 37.2751 30.898 36.1831 30.1 35.364C28.861 34.167 26.4039 31.941 26.4039 31.941L26.4018 32.0523C26.4018 32.6487 26.6076 33.1947 26.9542 33.6273C27.559 34.4211 28.7349 35.4501 29.4489 36.2481C30.1629 37.0462 30.5829 37.7181 29.4489 38.3482C28.3149 38.9781 26.635 37.4242 25.9 36.6682V36.6639C25.9001 36.4565 25.8256 36.256 25.69 36.099C25.4388 35.8664 25.1288 35.7066 24.7936 35.637C24.4583 35.5675 24.1104 35.5907 23.7874 35.7043C23.9203 35.5853 24.0268 35.4398 24.1001 35.2771C24.1735 35.1145 24.212 34.9383 24.2132 34.7599C24.2143 34.5815 24.1782 34.4049 24.107 34.2413C24.0359 34.0777 23.9313 33.9308 23.8 33.8101C23.5243 33.6012 23.1878 33.4883 22.842 33.4887C22.4962 33.4891 22.1599 33.6027 21.8848 33.8121C22.0239 33.6792 22.1313 33.5167 22.199 33.3365C22.2667 33.1564 22.293 32.9633 22.2758 32.7717C22.2587 32.58 22.1986 32.3947 22.1 32.2294C22.0014 32.0642 21.8668 31.9233 21.7063 31.8172C21.3303 31.5809 20.8892 31.47 20.4462 31.5001C20.0033 31.5303 19.5813 31.7001 19.2409 31.9851C19.4684 31.7094 19.5805 31.3564 19.5539 30.9999C19.5273 30.6434 19.364 30.311 19.0981 30.072C18.7675 29.7644 18.3464 29.572 17.8974 29.5236C17.4485 29.4751 16.996 29.5732 16.6075 29.8033L15.211 27.445C14.245 25.912 13.111 24.3159 13.111 24.3159L17.899 18.4989C17.899 18.4989 19.6 19.5489 21.007 20.3469C21.7 20.7459 22.897 21.2709 23.8 21.6909C22.372 22.7619 21.175 23.7909 21.532 24.5049C22.1682 24.9616 22.9285 25.2135 23.7115 25.2271C24.4945 25.2406 25.2631 25.015 25.9146 24.5805C26.7501 24.0252 27.7318 23.7306 28.735 23.7342C29.4637 23.7342 30.1567 23.8854 30.7846 24.1605C31.948 24.9459 34.09 26.8779 36.0429 28.0959C38.5 29.8809 38.983 31.0359 38.3949 31.624V31.6261Z" fill="black"/>
</svg>
