<?xml version="1.0" encoding="iso-8859-1"?>
<!-- Generator: Adobe Illustrator 23.0.1, SVG Export Plug-In . SVG Version: 6.00 Build 0)  -->
<svg version="1.1" id="Layer_1" xmlns="http://www.w3.org/2000/svg" xmlns:xlink="http://www.w3.org/1999/xlink" x="0px" y="0px"
	 viewBox="0 0 49.216 49.748" style="enable-background:new 0 0 49.216 49.748;" xml:space="preserve">
<g>
	<defs>
		<rect id="SVGID_1_" y="0" width="49.216" height="49.748"/>
	</defs>
	<clipPath id="SVGID_2_">
		<use xlink:href="#SVGID_1_"  style="overflow:visible;"/>
	</clipPath>
	<path style="clip-path:url(#SVGID_2_);fill:#C893B2;" d="M47.055,23.648c0,12.146-9.846,21.991-21.991,21.991
		s-21.99-9.845-21.99-21.991s9.845-21.991,21.99-21.991S47.055,11.502,47.055,23.648"/>
	<path style="clip-path:url(#SVGID_2_);" d="M46.806,4.363c0,1.787-1.449,3.236-3.236,3.236c-1.787,0-3.237-1.449-3.237-3.236
		c0-1.787,1.45-3.236,3.237-3.236C45.357,1.127,46.806,2.576,46.806,4.363"/>
	<path style="clip-path:url(#SVGID_2_);" d="M44.46,22.233h4.251V11.904c0,0,0.27-3.405-5.142-3.405h-0.361
		c-5.412,0-5.142,3.405-5.142,3.405v10.329h4.251"/>
	<polygon style="clip-path:url(#SVGID_2_);" points="38.067,22.233 48.712,22.233 44.095,8.499 42.849,8.576 	"/>
	<path style="clip-path:url(#SVGID_2_);" d="M9.379,4.086c0,1.788-1.449,3.236-3.236,3.236S2.906,5.874,2.906,4.086
		c0-1.787,1.45-3.236,3.237-3.236S9.379,2.299,9.379,4.086"/>
	<path style="clip-path:url(#SVGID_2_);" d="M7.034,21.955h4.252V11.626c0,0,0.27-3.405-5.143-3.405h-0.36
		c-5.413,0-5.143,3.405-5.143,3.405v10.329h4.252"/>
	<polygon style="clip-path:url(#SVGID_2_);" points="0.64,21.955 11.286,21.955 6.669,8.221 5.422,8.298 	"/>
	<path style="clip-path:url(#SVGID_2_);" d="M28.555,31.203c0,1.787-1.449,3.236-3.236,3.236c-1.788,0-3.237-1.449-3.237-3.236
		c0-1.787,1.449-3.236,3.237-3.236C27.106,27.967,28.555,29.416,28.555,31.203"/>
	<path style="clip-path:url(#SVGID_2_);" d="M26.209,49.072h4.251V38.743c0,0,0.27-3.405-5.142-3.405h-0.361
		c-5.412,0-5.142,3.405-5.142,3.405v10.329h4.251"/>
	<polygon style="clip-path:url(#SVGID_2_);" points="19.816,49.072 30.461,49.072 25.844,35.338 24.598,35.415 	"/>
	
		<path style="clip-path:url(#SVGID_2_);fill:none;stroke:#000000;stroke-width:1.8;stroke-miterlimit:10;stroke-dasharray:4.999,4.999;" d="
		M43.692,19.431c0.4,1.766,0.541,3.53,0.448,5.253c-0.447,8.313-6.337,15.663-14.858,17.592
		C18.994,44.605,8.765,38.153,6.436,27.865C4.107,17.577,10.559,7.349,20.847,5.02C31.135,2.691,41.364,9.143,43.692,19.431z"/>
</g>
</svg>
