<?xml version="1.0" encoding="iso-8859-1"?>
<!-- Generator: Adobe Illustrator 23.0.1, SVG Export Plug-In . SVG Version: 6.00 Build 0)  -->
<svg version="1.1" id="Layer_1" xmlns="http://www.w3.org/2000/svg" xmlns:xlink="http://www.w3.org/1999/xlink" x="0px" y="0px"
	 viewBox="0 0 45.407 45.288" style="enable-background:new 0 0 45.407 45.288;" xml:space="preserve">
<g>
	<defs>
		<rect id="SVGID_1_" y="0.001" width="45.407" height="45.287"/>
	</defs>
	<clipPath id="SVGID_2_">
		<use xlink:href="#SVGID_1_"  style="overflow:visible;"/>
	</clipPath>
	<path style="clip-path:url(#SVGID_2_);fill:#F2E9A0;" d="M44.684,22.678c0,12.146-9.846,21.991-21.991,21.991
		s-21.99-9.845-21.99-21.991c0-12.145,9.845-21.991,21.99-21.991S44.684,10.533,44.684,22.678"/>
	
		<rect x="20.589" y="13.483" transform="matrix(0.8007 -0.5991 0.5991 0.8007 -6.1201 18.3021)" style="clip-path:url(#SVGID_2_);fill:none;stroke:#000000;stroke-miterlimit:10;" width="7.715" height="9.731"/>
	
		<rect x="30.434" y="7.04" transform="matrix(0.8006 -0.5992 0.5992 0.8006 2.3144 24.1672)" style="clip-path:url(#SVGID_2_);" width="14.064" height="3.134"/>
	
		<rect x="30.434" y="7.04" transform="matrix(0.8006 -0.5992 0.5992 0.8006 2.3144 24.1672)" style="clip-path:url(#SVGID_2_);fill:none;stroke:#000000;stroke-linejoin:round;stroke-miterlimit:10;" width="14.064" height="3.134"/>
	
		<rect x="16.039" y="12.304" transform="matrix(0.8007 -0.5991 0.5991 0.8007 -3.937 15.1622)" style="clip-path:url(#SVGID_2_);fill:none;stroke:#000000;stroke-linejoin:round;stroke-miterlimit:10;" width="9.554" height="2.387"/>
	
		<rect x="23.299" y="22.006" transform="matrix(0.8005 -0.5994 0.5994 0.8005 -8.3035 21.4583)" style="clip-path:url(#SVGID_2_);fill:none;stroke:#000000;stroke-linejoin:round;stroke-miterlimit:10;" width="9.554" height="2.387"/>
	
		<line style="clip-path:url(#SVGID_2_);fill:none;stroke:#000000;stroke-width:2;stroke-miterlimit:10;" x1="27.589" y1="15.997" x2="31.836" y2="12.82"/>
	<rect x="12.944" y="30.068" style="clip-path:url(#SVGID_2_);" width="19.059" height="2.392"/>
	
		<rect x="12.944" y="30.068" style="clip-path:url(#SVGID_2_);fill:none;stroke:#000000;stroke-linejoin:round;stroke-miterlimit:10;" width="19.059" height="2.392"/>
	<rect x="10.539" y="31.8" style="clip-path:url(#SVGID_2_);" width="23.869" height="2.996"/>
	
		<rect x="10.539" y="31.8" style="clip-path:url(#SVGID_2_);fill:none;stroke:#000000;stroke-linejoin:round;stroke-miterlimit:10;" width="23.869" height="2.996"/>
</g>
</svg>
