<?xml version="1.0" encoding="iso-8859-1"?>
<!-- Generator: Adobe Illustrator 23.0.1, SVG Export Plug-In . SVG Version: 6.00 Build 0)  -->
<svg version="1.1" id="Layer_1" xmlns="http://www.w3.org/2000/svg" xmlns:xlink="http://www.w3.org/1999/xlink" x="0px" y="0px"
	 viewBox="0 0 46.722 48.385" style="enable-background:new 0 0 46.722 48.385;" xml:space="preserve">
<g>
	<defs>
		<rect id="SVGID_1_" y="0" width="46.722" height="48.385"/>
	</defs>
	<clipPath id="SVGID_2_">
		<use xlink:href="#SVGID_1_"  style="overflow:visible;"/>
	</clipPath>
	<path style="clip-path:url(#SVGID_2_);fill:#C893B2;" d="M45.143,25.718c0,12.146-9.846,21.991-21.991,21.991
		s-21.99-9.845-21.99-21.991s9.845-21.991,21.99-21.991S45.143,13.572,45.143,25.718"/>
	<path style="clip-path:url(#SVGID_2_);fill:none;stroke:#000000;stroke-width:2;stroke-miterlimit:10;" d="M26.096,8.78
		c2.915,5.848,0.539,12.95-5.308,15.866c-5.846,2.916-12.95,0.54-15.865-5.307C2.007,13.492,4.383,6.388,10.23,3.473
		C16.076,0.557,23.18,2.933,26.096,8.78z"/>
	
		<line style="clip-path:url(#SVGID_2_);fill:none;stroke:#000000;stroke-width:2;stroke-miterlimit:10;" x1="23.886" y1="30.859" x2="20.788" y2="24.646"/>
	
		<rect x="23.694" y="28.116" transform="matrix(0.8949 -0.4462 0.4462 0.8949 -13.0084 15.3556)" style="clip-path:url(#SVGID_2_);" width="4.814" height="14.365"/>
	
		<rect x="23.694" y="28.116" transform="matrix(0.8949 -0.4462 0.4462 0.8949 -13.0084 15.3556)" style="clip-path:url(#SVGID_2_);fill:none;stroke:#000000;stroke-miterlimit:10;" width="4.814" height="14.365"/>
	<path style="clip-path:url(#SVGID_2_);fill:none;stroke:#000000;stroke-width:1.5;stroke-miterlimit:10;" d="M12.497,8.02
		c3.336-1.663,7.389-0.308,9.052,3.028"/>
</g>
</svg>
