<?xml version="1.0" encoding="iso-8859-1"?>
<!-- Generator: Adobe Illustrator 23.0.1, SVG Export Plug-In . SVG Version: 6.00 Build 0)  -->
<svg version="1.1" id="Layer_1" xmlns="http://www.w3.org/2000/svg" xmlns:xlink="http://www.w3.org/1999/xlink" x="0px" y="0px"
	 viewBox="0 0 45.669 45.891" style="enable-background:new 0 0 45.669 45.891;" xml:space="preserve">
<g>
	<defs>
		<rect id="SVGID_1_" y="0" width="45.669" height="45.891"/>
	</defs>
	<clipPath id="SVGID_2_">
		<use xlink:href="#SVGID_1_"  style="overflow:visible;"/>
	</clipPath>
	<path style="clip-path:url(#SVGID_2_);fill:#B2CD94;" d="M44.7,23.004c0,12.146-9.846,21.991-21.991,21.991
		S0.719,35.15,0.719,23.004c0-12.145,9.845-21.991,21.99-21.991S44.7,10.859,44.7,23.004"/>
	<path style="clip-path:url(#SVGID_2_);" d="M12.948,16.899l-2.809-0.615c1.317-0.921,3.029-0.79,3.029-0.79s0-3.686,4.257-3.73
		c4.257-0.044,3.511,4.564,3.511,4.564s-0.439,7.286,10.314,2.414c0,0,3.425-1.219,2.282-0.658
		c-2.326,1.141-1.624,1.843-1.624,1.843c1.361-0.746,2.251-0.58,2.251-0.58l-1.274,1.58c0,0,1.251,0.147,2.183,0.01
		c0.746-0.11-2.299,0.632-2.721,1.536c0,0-0.834,1.536-0.878,4.608c-0.043,3.072-3.16,3.511-3.686,3.643
		C27.257,30.856,10.884,35.684,12.948,16.899"/>
	<path style="clip-path:url(#SVGID_2_);fill:none;stroke:#000000;stroke-miterlimit:10;" d="M12.948,16.899l-2.809-0.615
		c1.317-0.921,3.029-0.79,3.029-0.79s0-3.686,4.257-3.73c4.257-0.044,3.511,4.564,3.511,4.564s-0.439,7.286,10.314,2.414
		c0,0,3.425-1.219,2.282-0.658c-2.326,1.141-1.624,1.843-1.624,1.843c1.361-0.746,2.251-0.58,2.251-0.58l-1.274,1.58
		c0,0,1.251,0.147,2.183,0.01c0.746-0.11-2.299,0.632-2.721,1.536c0,0-0.834,1.536-0.878,4.608c-0.043,3.072-3.16,3.511-3.686,3.643
		C27.257,30.856,10.884,35.684,12.948,16.899z"/>
	<path style="clip-path:url(#SVGID_2_);" d="M12.948,16.899c-0.077,0.011-1.943,1.276-1.492,3.182
		C12.207,23.258,13.073,17.102,12.948,16.899"/>
	<path style="clip-path:url(#SVGID_2_);fill:none;stroke:#000000;stroke-miterlimit:10;" d="M12.948,16.899
		c-0.077,0.011-1.943,1.276-1.492,3.182C12.207,23.258,13.073,17.102,12.948,16.899z"/>
	<path style="clip-path:url(#SVGID_2_);" d="M15.888,11.348c0,0.399-0.138,0.723-0.307,0.723c-0.17,0-0.307-0.324-0.307-0.723
		c0-0.399,0.137-0.723,0.307-0.723C15.75,10.625,15.888,10.949,15.888,11.348"/>
	
		<ellipse style="clip-path:url(#SVGID_2_);fill:none;stroke:#000000;stroke-miterlimit:10;" cx="15.581" cy="11.348" rx="0.307" ry="0.723"/>
	<path style="clip-path:url(#SVGID_2_);" d="M16.744,11.04c0,0.399-0.138,0.723-0.308,0.723s-0.307-0.324-0.307-0.723
		c0-0.399,0.137-0.723,0.307-0.723S16.744,10.641,16.744,11.04"/>
	<path style="clip-path:url(#SVGID_2_);fill:none;stroke:#000000;stroke-miterlimit:10;" d="M16.744,11.04
		c0,0.399-0.138,0.723-0.308,0.723s-0.307-0.324-0.307-0.723c0-0.399,0.137-0.723,0.307-0.723S16.744,10.641,16.744,11.04z"/>
	<path style="clip-path:url(#SVGID_2_);" d="M17.447,11.04c0,0.399-0.138,0.723-0.308,0.723s-0.306-0.324-0.306-0.723
		c0-0.399,0.136-0.723,0.306-0.723S17.447,10.641,17.447,11.04"/>
	<path style="clip-path:url(#SVGID_2_);fill:none;stroke:#000000;stroke-miterlimit:10;" d="M17.447,11.04
		c0,0.399-0.138,0.723-0.308,0.723s-0.306-0.324-0.306-0.723c0-0.399,0.136-0.723,0.306-0.723S17.447,10.641,17.447,11.04z"/>
	<path style="clip-path:url(#SVGID_2_);fill:#B2CD94;" d="M15.888,14.21c0,0.258-0.209,0.468-0.468,0.468
		c-0.258,0-0.468-0.21-0.468-0.468c0-0.258,0.21-0.468,0.468-0.468C15.679,13.742,15.888,13.952,15.888,14.21"/>
	
		<circle style="clip-path:url(#SVGID_2_);fill:none;stroke:#B2CD94;stroke-width:0.5;stroke-miterlimit:10;" cx="15.42" cy="14.21" r="0.468"/>
	<path style="clip-path:url(#SVGID_2_);fill:none;stroke:#000000;stroke-miterlimit:10;" d="M25.807,30.241
		c0,0,1.844,4.872,3.028,5.925l1.318,0.307"/>
	
		<line style="clip-path:url(#SVGID_2_);fill:none;stroke:#000000;stroke-miterlimit:10;" x1="26.115" y1="36.649" x2="28.835" y2="36.167"/>
	<polyline style="clip-path:url(#SVGID_2_);fill:none;stroke:#000000;stroke-miterlimit:10;" points="21.386,31.374 19.168,36.173 
		16.666,36.407 	"/>
	
		<line style="clip-path:url(#SVGID_2_);fill:none;stroke:#000000;stroke-miterlimit:10;" x1="20.221" y1="36.737" x2="19.168" y2="36.21"/>
	<path style="clip-path:url(#SVGID_2_);" d="M3.493,6.146c0.036-0.752,0.403-1.533,1.249-2.034c0.813-0.481,1.892-0.334,2.564,0.33
		C7.509,4.644,7.709,4.85,7.903,5.06c0.057,0.06,0.079,0.048,0.13-0.004c0.209-0.221,0.414-0.448,0.64-0.652
		c0.922-0.835,2.307-0.743,3.117,0.2c0.488,0.568,0.698,1.231,0.642,1.973c-0.05,0.679-0.347,1.244-0.822,1.732
		c-1.05,1.081-2.09,2.172-3.135,3.259c-0.146,0.153-0.295,0.302-0.438,0.457c-0.055,0.06-0.084,0.06-0.141,0.001
		c-0.451-0.475-0.906-0.946-1.36-1.419C5.779,9.819,5.025,9.029,4.265,8.244C3.762,7.723,3.493,7.079,3.493,6.146"/>
</g>
</svg>
