<svg width="64" height="64" viewBox="0 0 64 64" fill="none" xmlns="http://www.w3.org/2000/svg">
<rect width="64" height="64" rx="8" fill="#F6DDFF"/>
<path d="M34.5409 25.8041L34.1666 25.9013V26.288V39.882L31.9999 44.2153L29.8333 39.882V26.288V25.9013L29.4589 25.8041C25.0812 24.6671 21.8333 20.718 21.8333 16C21.8333 10.3935 26.3934 5.83337 31.9999 5.83337C37.6064 5.83337 42.1666 10.3935 42.1666 16C42.1666 20.718 38.9186 24.6671 34.5409 25.8041Z" fill="#333333" stroke="#333333"/>
<path d="M42.5714 32.9642L43.7264 28.7863C52.7919 31.4228 58.1666 36.7765 58.1666 42.6666C58.1666 46.9122 55.3947 50.7748 50.683 53.6019C45.9775 56.4252 39.4038 58.1666 31.9999 58.1666C24.5961 58.1666 18.0223 56.4252 13.3168 53.6019C8.60514 50.7748 5.83325 46.9122 5.83325 42.6666C5.83325 36.7765 11.2079 31.4228 20.2761 28.7837L21.4311 32.9616C18.1419 33.9255 15.4007 35.294 13.4463 36.9014C11.4034 38.5816 10.1666 40.5717 10.1666 42.6666C10.1666 45.4749 12.5731 48.2711 16.3803 50.3317C20.2256 52.413 25.6431 53.8333 31.9999 53.8333C38.3567 53.8333 43.7742 52.413 47.6196 50.3317C51.4267 48.2711 53.8333 45.4749 53.8333 42.6666C53.8333 40.5717 52.5965 38.5817 50.5539 36.9018C48.5998 35.2947 45.8593 33.9269 42.5714 32.9642Z" fill="#333333" stroke="#333333"/>
</svg>
