<svg width="56" height="56" viewBox="0 0 56 56" fill="none" xmlns="http://www.w3.org/2000/svg">
<path d="M56 28C56 12.536 43.464 0 28 0C12.536 0 0 12.536 0 28C0 43.464 12.536 56 28 56C43.464 56 56 43.464 56 28Z" fill="#C3EE8D"/>
<path d="M43.853 16.602C36.23 21.075 36.776 30.2625 31.435 34.4083C27.4152 37.5285 21.7435 35.9483 18.464 34.606C18.464 34.606 16.2415 37.4113 14.6472 41.1511C14.1135 42.4058 11.7702 41.0233 12.1815 39.9611C17.393 26.5123 35.124 19.8027 35.124 19.8027C35.124 19.8027 22.6132 19.2725 14.2518 30.1978C14.0278 27.7023 13.6567 20.9507 20.1318 16.8103C28.9098 11.191 45.6327 15.559 43.853 16.602Z" fill="black"/>
</svg>
