<svg width="24" height="24" viewBox="0 0 24 24" fill="none" xmlns="http://www.w3.org/2000/svg">
<path d="M0 12C0 5.37258 5.37258 0 12 0C18.6274 0 24 5.37258 24 12C24 18.6274 18.6274 24 12 24C5.37258 24 0 18.6274 0 12Z" fill="#FFEE9A"/>
<path d="M16.7895 5.7C15.5707 5.7 14.5789 6.6422 14.5789 7.8C14.5789 8.1514 14.6792 8.4776 14.8398 8.7695L14.0175 9.6809C13.531 9.36701 12.9565 9.19945 12.3684 9.2C11.8239 9.2 11.3184 9.3512 10.88 9.5962L9.83811 8.6064C10.0451 8.2525 10.155 7.85484 10.1579 7.45C10.1579 6.099 9.00105 5 7.57895 5C6.15684 5 5 6.099 5 7.45C5 8.801 6.15684 9.9 7.57895 9.9C8.02179 9.9 8.43221 9.7838 8.79621 9.5962L9.83811 10.586C9.56821 11.0133 9.42417 11.5017 9.42105 12C9.42105 12.6979 9.70105 13.3293 10.1468 13.8207L8.90011 15.0051L8.91853 15.0226C8.61728 14.8781 8.28485 14.8019 7.94737 14.8C6.72863 14.8 5.73684 15.7422 5.73684 16.9C5.73684 18.0578 6.72863 19 7.94737 19C9.16611 19 10.1579 18.0578 10.1579 16.9C10.1579 16.5668 10.0687 16.2567 9.92358 15.9774L9.942 15.9949L11.3818 14.6271C11.692 14.7321 12.0206 14.8 12.3684 14.8C13.9939 14.8 15.3158 13.5442 15.3158 12C15.3126 11.5652 15.2018 11.1371 14.9923 10.7505L15.9156 9.7271C16.1838 9.8377 16.4785 9.9 16.7895 9.9C18.0082 9.9 19 8.9578 19 7.8C19 6.6422 18.0082 5.7 16.7895 5.7ZM7.94737 17.6C7.75195 17.6 7.56453 17.5263 7.42634 17.395C7.28816 17.2637 7.21053 17.0857 7.21053 16.9C7.21053 16.7143 7.28816 16.5363 7.42634 16.405C7.56453 16.2737 7.75195 16.2 7.94737 16.2C8.14279 16.2 8.33021 16.2737 8.46839 16.405C8.60658 16.5363 8.68421 16.7143 8.68421 16.9C8.68421 17.0857 8.60658 17.2637 8.46839 17.395C8.33021 17.5263 8.14279 17.6 7.94737 17.6ZM6.47368 7.45C6.47368 6.8711 6.96958 6.4 7.57895 6.4C8.18832 6.4 8.68421 6.8711 8.68421 7.45C8.68421 8.0289 8.18832 8.5 7.57895 8.5C6.96958 8.5 6.47368 8.0289 6.47368 7.45ZM12.3684 13.4C11.5557 13.4 10.8947 12.7721 10.8947 12C10.8947 11.2279 11.5557 10.6 12.3684 10.6C13.1812 10.6 13.8421 11.2279 13.8421 12C13.8421 12.7721 13.1812 13.4 12.3684 13.4ZM16.7895 8.5C16.5941 8.5 16.4066 8.42625 16.2684 8.29497C16.1303 8.1637 16.0526 7.98565 16.0526 7.8C16.0526 7.61435 16.1303 7.4363 16.2684 7.30503C16.4066 7.17375 16.5941 7.1 16.7895 7.1C16.9849 7.1 17.1723 7.17375 17.3105 7.30503C17.4487 7.4363 17.5263 7.61435 17.5263 7.8C17.5263 7.98565 17.4487 8.1637 17.3105 8.29497C17.1723 8.42625 16.9849 8.5 16.7895 8.5Z" fill="black"/>
</svg>
