<?xml version="1.0" encoding="iso-8859-1"?>
<!-- Generator: Adobe Illustrator 23.0.1, SVG Export Plug-In . SVG Version: 6.00 Build 0)  -->
<svg version="1.1" id="Layer_1" xmlns="http://www.w3.org/2000/svg" xmlns:xlink="http://www.w3.org/1999/xlink" x="0px" y="0px"
	 viewBox="0 0 46.389 48.353" style="enable-background:new 0 0 46.389 48.353;" xml:space="preserve">
<g>
	<defs>
		<rect id="SVGID_1_" y="0" width="46.389" height="48.353"/>
	</defs>
	<clipPath id="SVGID_2_">
		<use xlink:href="#SVGID_1_"  style="overflow:visible;"/>
	</clipPath>
	<path style="clip-path:url(#SVGID_2_);fill:#B2CD94;" d="M44.894,24.509c0,12.145-9.846,21.991-21.991,21.991
		s-21.99-9.846-21.99-21.991s9.845-21.991,21.99-21.991S44.894,12.364,44.894,24.509"/>
	<path style="clip-path:url(#SVGID_2_);fill:none;stroke:#000000;stroke-width:1.4;stroke-miterlimit:10;" d="M9.531,24.201
		c0,0,4.74,18.59,11.947,23.256"/>
	<path style="clip-path:url(#SVGID_2_);" d="M5.311,17.283c0,0,0.673,6.448,3.658,7.576S5.311,17.283,5.311,17.283"/>
	<path style="clip-path:url(#SVGID_2_);fill:none;stroke:#000000;stroke-miterlimit:10;" d="M5.311,17.283
		c0,0,0.673,6.448,3.658,7.576S5.311,17.283,5.311,17.283z"/>
	<path style="clip-path:url(#SVGID_2_);" d="M3.492,23.784c0,0,3.549,7.141,7.299,7.352C14.54,31.347,3.492,23.784,3.492,23.784"/>
	<path style="clip-path:url(#SVGID_2_);fill:none;stroke:#000000;stroke-miterlimit:10;" d="M3.492,23.784
		c0,0,3.549,7.141,7.299,7.352C14.54,31.347,3.492,23.784,3.492,23.784z"/>
	<path style="clip-path:url(#SVGID_2_);" d="M5.436,32.762c0,0,4.541,6.925,8.434,6.681c2.266-0.143-0.967-2.385-4.064-4.233
		C7.586,33.885,5.436,32.762,5.436,32.762"/>
	<path style="clip-path:url(#SVGID_2_);fill:none;stroke:#000000;stroke-miterlimit:10;" d="M5.436,32.762
		c0,0,4.541,6.925,8.434,6.681c2.266-0.143-0.967-2.385-4.064-4.233C7.586,33.885,5.436,32.762,5.436,32.762z"/>
	<path style="clip-path:url(#SVGID_2_);" d="M9.414,40.894c0,0,4.514,4.231,7.477,2.884C19.853,42.431,9.414,40.894,9.414,40.894"/>
	<path style="clip-path:url(#SVGID_2_);fill:none;stroke:#000000;stroke-miterlimit:10;" d="M9.414,40.894
		c0,0,4.514,4.231,7.477,2.884C19.853,42.431,9.414,40.894,9.414,40.894z"/>
	<path style="clip-path:url(#SVGID_2_);" d="M13.084,20.444c0,0,1.654,7.801-1.152,10.295C9.125,33.235,13.084,20.444,13.084,20.444
		"/>
	<path style="clip-path:url(#SVGID_2_);fill:none;stroke:#000000;stroke-miterlimit:10;" d="M13.084,20.444
		c0,0,1.654,7.801-1.152,10.295C9.125,33.235,13.084,20.444,13.084,20.444z"/>
	<path style="clip-path:url(#SVGID_2_);" d="M17.346,25.489c0,0,0.743,8.248-2.459,10.474
		C11.686,38.189,17.346,25.489,17.346,25.489"/>
	<path style="clip-path:url(#SVGID_2_);fill:none;stroke:#000000;stroke-miterlimit:10;" d="M17.346,25.489
		c0,0,0.743,8.248-2.459,10.474C11.686,38.189,17.346,25.489,17.346,25.489z"/>
	<path style="clip-path:url(#SVGID_2_);" d="M20.577,34.175c0,0-0.316,6.178-3.385,7.263C14.124,42.523,20.577,34.175,20.577,34.175
		"/>
	<path style="clip-path:url(#SVGID_2_);fill:none;stroke:#000000;stroke-miterlimit:10;" d="M20.577,34.175
		c0,0-0.316,6.178-3.385,7.263C14.124,42.523,20.577,34.175,20.577,34.175z"/>
	<path style="clip-path:url(#SVGID_2_);" d="M33.783,21.661c-2.405,3.54-5.749,5.462-7.468,4.294s-1.161-4.984,1.245-8.524
		c2.406-3.54,5.749-5.462,7.468-4.294C36.747,14.305,36.189,18.121,33.783,21.661"/>
	<path style="clip-path:url(#SVGID_2_);fill:none;stroke:#000000;stroke-miterlimit:10;" d="M33.783,21.661
		c-2.405,3.54-5.749,5.462-7.468,4.294s-1.161-4.984,1.245-8.524c2.406-3.54,5.749-5.462,7.468-4.294
		C36.747,14.305,36.189,18.121,33.783,21.661z"/>
	<path style="clip-path:url(#SVGID_2_);" d="M38.955,12.155c-0.854,1.257-2.565,1.583-3.822,0.729s-1.583-2.566-0.73-3.823
		c0.855-1.257,2.567-1.583,3.823-0.729C39.483,9.187,39.809,10.898,38.955,12.155"/>
	<path style="clip-path:url(#SVGID_2_);fill:none;stroke:#000000;stroke-miterlimit:10;" d="M38.955,12.155
		c-0.854,1.257-2.565,1.583-3.822,0.729s-1.583-2.566-0.73-3.823c0.855-1.257,2.567-1.583,3.823-0.729
		C39.483,9.187,39.809,10.898,38.955,12.155z"/>
	<path style="clip-path:url(#SVGID_2_);fill:none;stroke:#000000;stroke-width:0.75;stroke-miterlimit:10;" d="M37.769,1.013
		c0,0,1.559,3.398-0.543,6.64"/>
	<path style="clip-path:url(#SVGID_2_);fill:none;stroke:#000000;stroke-width:0.75;stroke-miterlimit:10;" d="M45.103,6.03
		c0,0-3.733-0.199-5.975,2.948"/>
	
		<line style="clip-path:url(#SVGID_2_);fill:none;stroke:#B2CD94;stroke-width:0.5;stroke-miterlimit:10;" x1="29.032" y1="14.154" x2="36.248" y2="19.059"/>
	
		<line style="clip-path:url(#SVGID_2_);fill:none;stroke:#B2CD94;stroke-width:0.5;stroke-miterlimit:10;" x1="27.323" y1="16.668" x2="34.539" y2="21.573"/>
	
		<line style="clip-path:url(#SVGID_2_);fill:none;stroke:#B2CD94;stroke-width:0.5;stroke-miterlimit:10;" x1="25.615" y1="19.182" x2="32.831" y2="24.086"/>
	
		<line style="clip-path:url(#SVGID_2_);fill:none;stroke:#B2CD94;stroke-width:0.5;stroke-miterlimit:10;" x1="23.906" y1="21.696" x2="31.122" y2="26.6"/>
	<path style="clip-path:url(#SVGID_2_);" d="M33.847,12.287c0.328-0.273-10.896-4.173-10.865,2.5
		C22.982,14.787,23.587,20.816,33.847,12.287"/>
	<path style="clip-path:url(#SVGID_2_);fill:none;stroke:#B2CD94;stroke-width:0.5;stroke-miterlimit:10;" d="M33.847,12.287
		c0.328-0.273-10.896-4.173-10.865,2.5C22.982,14.787,23.587,20.816,33.847,12.287z"/>
	<path style="clip-path:url(#SVGID_2_);" d="M36.113,13.827c0.133-0.406,7.89,8.596,1.674,11.023
		C37.787,24.85,31.958,26.506,36.113,13.827"/>
	<path style="clip-path:url(#SVGID_2_);fill:none;stroke:#B2CD94;stroke-width:0.5;stroke-miterlimit:10;" d="M36.113,13.827
		c0.133-0.406,7.89,8.596,1.674,11.023C37.787,24.85,31.958,26.506,36.113,13.827z"/>
</g>
</svg>
