<svg width="24" height="24" viewBox="0 0 24 24" fill="none" xmlns="http://www.w3.org/2000/svg">
<path d="M0 12C0 5.37258 5.37258 0 12 0C18.6274 0 24 5.37258 24 12C24 18.6274 18.6274 24 12 24C5.37258 24 0 18.6274 0 12Z" fill="#FFEE9A"/>
<path d="M15.5 4C14.2114 4 13.1667 5.03442 13.1667 6.30769C13.1667 7.84519 15.2083 9.94577 15.2083 12.059H15.7917C15.7922 9.94577 17.8333 7.90577 17.8333 6.30769C17.8333 5.03442 16.7886 4 15.5 4ZM15.5 5.11808C15.658 5.11815 15.8145 5.14901 15.9605 5.2089C16.1065 5.26878 16.2391 5.35651 16.3508 5.46708C16.4625 5.57766 16.551 5.70891 16.6115 5.85334C16.6719 5.99777 16.7029 6.15255 16.7028 6.30885C16.7028 6.46514 16.6716 6.6199 16.611 6.76427C16.5505 6.90864 16.4618 7.0398 16.3499 7.15027C16.2381 7.26074 16.1054 7.34834 15.9594 7.40808C15.8134 7.46783 15.6569 7.49854 15.4988 7.49846C15.1796 7.49831 14.8735 7.37274 14.6479 7.14937C14.4222 6.926 14.2956 6.62314 14.2957 6.3074C14.2959 5.99167 14.4228 5.68893 14.6487 5.46578C14.8745 5.24263 15.1808 5.11735 15.5 5.1175V5.11808ZM12 5.15385C8.14008 5.15385 5 8.25942 5 12.0769C5 15.8944 8.14008 19 12 19C15.8599 19 19 15.8944 19 12.0769C19 10.9173 18.7095 9.82923 18.1979 8.8675C18.1203 9.01981 18.0422 9.16462 17.9611 9.31865C17.8077 9.61173 17.6461 9.90769 17.5049 10.2019C17.6508 10.6144 17.7511 11.0506 17.7966 11.5H17.0312C16.9892 11.6933 16.9583 11.875 16.9583 12.059V12.6538H17.7972C17.718 13.4672 17.463 14.2542 17.0493 14.9615H15.3367C15.465 14.4204 15.5391 13.8221 15.5916 13.2129H14.4424C14.3881 13.8032 14.2846 14.388 14.1332 14.9615H9.86675C9.66961 14.2065 9.55347 13.433 9.52025 12.6538H14.0411V12.059C14.0366 11.8707 14.0121 11.6833 13.9682 11.5H9.52083C9.55405 10.7209 9.67019 9.94736 9.86733 9.19231H12.9847C12.7823 8.81442 12.5936 8.42957 12.4188 8.03846H10.2681C10.7505 6.94981 11.3881 6.30769 12 6.30769C12 5.90673 12.0729 5.53 12.2007 5.17173C12.1336 5.16942 12.0677 5.15385 12 5.15385ZM9.59375 6.83038C9.36144 7.2141 9.16614 7.61857 9.01042 8.03846H7.84375C8.34693 7.53267 8.9402 7.12311 9.59375 6.83038ZM6.95067 9.19231H8.66333C8.4869 9.95019 8.38319 10.7228 8.35358 11.5H6.20283C6.28172 10.6866 6.53677 9.89952 6.95067 9.19231ZM6.20283 12.6538H8.35417C8.38858 13.476 8.49592 14.2519 8.66392 14.9615H6.95067C6.53728 14.2541 6.28225 13.4671 6.20283 12.6538ZM7.84375 16.1154H9.01042C9.17842 16.5631 9.375 16.9652 9.59375 17.3235C8.9402 17.0307 8.34693 16.6212 7.84375 16.1154ZM10.2681 16.1154H13.7319C13.2495 17.204 12.6119 17.8462 12 17.8462C11.3881 17.8462 10.7499 17.204 10.2681 16.1154ZM14.9896 16.1154H16.1562C15.6531 16.6212 15.0598 17.0307 14.4062 17.3235C14.625 16.9658 14.8216 16.5637 14.9896 16.1154Z" fill="black"/>
</svg>
