<svg width="24" height="24" viewBox="0 0 24 24" fill="none" xmlns="http://www.w3.org/2000/svg">
<path d="M0 12C0 5.37258 5.37258 0 12 0C18.6274 0 24 5.37258 24 12C24 18.6274 18.6274 24 12 24C5.37258 24 0 18.6274 0 12Z" fill="#C3EE8D"/>
<path d="M10.0314 12C11.1458 12 12.2453 11.1721 13.32 11.1721C14.0576 11.1721 14.6471 11.6134 14.8549 12.233C14.9602 12.5472 15.3567 12.6465 15.603 12.4248C15.6791 12.3559 15.7304 12.2637 15.7487 12.1627C15.767 12.0616 15.7514 11.9573 15.7043 11.866C15.3937 11.2546 14.9365 10.7296 14.3736 10.338C13.8107 9.94628 13.1595 9.70008 12.4782 9.62134C11.797 9.5426 11.1068 9.63377 10.4694 9.88671C9.83194 10.1397 9.26705 10.5465 8.82514 11.0709C8.76921 11.1369 8.73164 11.2164 8.71618 11.3014C8.70073 11.3865 8.70794 11.4741 8.7371 11.5555C8.76626 11.6369 8.81633 11.7092 8.88229 11.7651C8.94824 11.821 9.02776 11.8586 9.11283 11.874C9.4428 11.9333 9.77963 12 10.0314 12Z" fill="black"/>
<path d="M8.93762 19H5.21876C5.16074 19 5.1051 18.9769 5.06407 18.9359C5.02305 18.8949 5 18.8393 5 18.7812V16.375C5 15.6139 5.11988 14.5201 5.69103 13.6317C6.29376 12.6941 7.23887 12.2187 8.50011 12.2187C8.80995 12.2187 9.69942 12.4375 10.0314 12.4375C10.8557 12.4375 11.703 12.0983 12.4506 11.799C14.6191 10.9308 15.0174 13.3039 13.8597 13.742C13.0057 14.0652 11.5463 14.2909 10.8583 14.9526L14.5184 13.9894L16.6138 12.1036C16.9086 10.766 16.9817 8.9375 18.7817 8.9375C18.8133 8.93795 18.8445 8.94518 18.8731 8.95868C18.9017 8.97218 18.927 8.99166 18.9475 9.01579C18.9679 9.03992 18.983 9.06815 18.9916 9.09858C19.0002 9.12901 19.0022 9.16094 18.9975 9.19221C18.9748 9.32893 18.3893 13.1504 18.2801 13.2484L14.78 16.7484C14.7043 16.8441 9.95697 17.8955 9.83942 17.9226C9.64491 17.9668 9.47125 18.0759 9.34708 18.232C9.22291 18.3881 9.15564 18.5818 9.15638 18.7812C9.15638 18.8393 9.13333 18.8949 9.09231 18.9359C9.05128 18.9769 8.99564 19 8.93762 19Z" fill="black"/>
<path d="M16.1395 5.31848C16.0685 5.29535 14.3882 4.75597 13.2698 5.14786C12.64 5.36858 12.233 5.67674 12.0065 6.0047C11.785 5.6728 11.3795 5.36095 10.7471 5.13924C9.63919 4.75096 7.97161 5.29549 7.90106 5.31884C7.86958 5.32977 7.84098 5.34767 7.81739 5.37121C7.7938 5.39474 7.77583 5.42331 7.76484 5.45476C7.75384 5.48622 7.75009 5.51975 7.75387 5.55286C7.75765 5.58596 7.76887 5.61779 7.78668 5.64595C8.12867 6.17032 9.26019 7.74986 10.8935 7.74986C11.2153 7.74986 11.5356 7.6669 11.7814 7.49283V8.96444C11.7814 9.02246 11.8044 9.0781 11.8454 9.11912C11.8865 9.16014 11.9421 9.18319 12.0001 9.18319C12.0581 9.18319 12.1138 9.16014 12.1548 9.11912C12.1958 9.0781 12.2189 9.02246 12.2189 8.96444V7.51837C12.7213 7.86818 13.5318 7.77698 14.1149 7.57265C15.2331 7.18081 16.2132 5.70936 16.2543 5.64694C16.2723 5.61869 16.2837 5.58673 16.2876 5.55346C16.2914 5.52019 16.2877 5.48648 16.2766 5.45486C16.2656 5.42325 16.2475 5.39455 16.2238 5.37092C16.2 5.3473 16.1712 5.32937 16.1395 5.31848Z" fill="black"/>
</svg>
