<svg width="24" height="24" viewBox="0 0 24 24" fill="none" xmlns="http://www.w3.org/2000/svg">
<path d="M0 12C0 5.37258 5.37258 0 12 0C18.6274 0 24 5.37258 24 12C24 18.6274 18.6274 24 12 24C5.37258 24 0 18.6274 0 12Z" fill="#C3EE8D"/>
<path fill-rule="evenodd" clip-rule="evenodd" d="M17.2025 7.29117L16.7082 6.79604C15.6878 5.77488 14.0736 5.72966 13.1052 6.69807L6.69724 13.1054C5.7296 14.0738 5.77482 15.6866 6.79747 16.7092L7.29033 17.2021C8.31297 18.2248 9.92645 18.2708 10.8948 17.3031L17.3028 10.8935C18.2704 9.92736 18.2252 8.31385 17.2025 7.29117ZM13.5769 13.6465L10.3779 10.4459L13.549 7.27459C14.2612 6.56317 15.4572 6.59784 16.213 7.35523L16.6682 7.80816C17.0375 8.1797 17.2493 8.66353 17.2613 9.17147C17.2698 9.41219 17.2287 9.65209 17.1405 9.87625C17.0524 10.1004 16.919 10.304 16.7489 10.4745L13.5769 13.6465Z" fill="black"/>
</svg>
