<svg width="24" height="24" viewBox="0 0 24 24" fill="none" xmlns="http://www.w3.org/2000/svg">
<path d="M0 12C0 5.37258 5.37258 0 12 0C18.6274 0 24 5.37258 24 12C24 18.6274 18.6274 24 12 24C5.37258 24 0 18.6274 0 12Z" fill="#FFEE9A"/>
<path d="M17.9723 10.6481C17.9723 10.6728 17.9784 10.6914 17.9908 10.7037C18.0031 10.716 18.0031 10.7346 17.9908 10.7593V11.1296C17.9908 11.2531 17.9477 11.358 17.8614 11.4444C17.7752 11.5309 17.6705 11.5741 17.5473 11.5741H16.6975V17.5741C16.6975 17.6975 16.6605 17.7963 16.5866 17.8704C16.5127 17.9444 16.408 17.9877 16.2725 18H7.71824C7.59507 18 7.49038 17.9568 7.40416 17.8704C7.31794 17.784 7.27483 17.6852 7.27483 17.5741V11.5741H6.42494C6.30177 11.5741 6.20323 11.5309 6.12933 11.4444C6.05543 11.358 6.01232 11.2531 6 11.1296V10.7593C6 10.7099 6.00616 10.6728 6.01848 10.6481L7.10855 6.62963C7.17013 6.4321 7.27483 6.27778 7.42263 6.16667C7.57044 6.05556 7.74288 6 7.93995 6H16.0508C16.2479 6 16.4203 6.05556 16.5681 6.16667C16.7159 6.27778 16.8145 6.4321 16.8637 6.62963L17.9723 10.6481ZM15.4226 11.5741H8.56813V13.9259C8.56813 13.9877 8.59276 14.037 8.64203 14.0741C8.6913 14.1111 8.74057 14.1358 8.78984 14.1481H15.2009C15.2625 14.1481 15.3179 14.1235 15.3672 14.0741C15.4165 14.0247 15.4349 13.9753 15.4226 13.9259V11.5741Z" fill="black"/>
</svg>
