<svg width="24" height="24" viewBox="0 0 24 24" fill="none" xmlns="http://www.w3.org/2000/svg">
<path d="M0 12C0 5.37258 5.37258 0 12 0C18.6274 0 24 5.37258 24 12C24 18.6274 18.6274 24 12 24C5.37258 24 0 18.6274 0 12Z" fill="#9AE7FF"/>
<path d="M16.06 17.6C15.78 18.44 15.01 19 14.1 19H7.1C5.91 19 5 18.09 5 16.9V16.2H13.54C13.82 17.04 14.59 17.6 15.5 17.6H16.06ZM16.9 5C18.09 5 19 5.91 19 7.1V7.8H17.6V7.1C17.6 6.68 17.32 6.4 16.9 6.4C16.48 6.4 16.2 6.68 16.2 7.1V16.2H15.5C15.08 16.2 14.8 15.92 14.8 15.5V14.8H7.1V7.1C7.1 5.91 8.01 5 9.2 5H16.9ZM9.2 7.8V9.2H14.1V7.8H9.2ZM9.2 10.6V12H13.4V10.6H9.2Z" fill="black"/>
</svg>
