<svg width="24" height="24" viewBox="0 0 24 24" fill="none" xmlns="http://www.w3.org/2000/svg">
<path d="M0 12C0 5.37258 5.37258 0 12 0C18.6274 0 24 5.37258 24 12C24 18.6274 18.6274 24 12 24C5.37258 24 0 18.6274 0 12Z" fill="#C3EE8D"/>
<path d="M11.573 10.7431L8.85 13.535L6.127 10.7431C5.58875 10.1906 5.22225 9.48667 5.07385 8.72041C4.92544 7.95416 5.00179 7.15996 5.29324 6.43822C5.58469 5.71649 6.07815 5.09963 6.71124 4.66564C7.34433 4.23164 8.08862 4 8.85 4C9.61138 4 10.3557 4.23164 10.9888 4.66564C11.6218 5.09963 12.1153 5.71649 12.4068 6.43822C12.6982 7.15996 12.7746 7.95416 12.6262 8.72041C12.4777 9.48667 12.1113 10.1906 11.573 10.7431ZM8.85 9.38561C9.2213 9.38561 9.5774 9.23426 9.83995 8.96487C10.1025 8.69547 10.25 8.33008 10.25 7.9491C10.25 7.56811 10.1025 7.20273 9.83995 6.93333C9.5774 6.66393 9.2213 6.51259 8.85 6.51259C8.4787 6.51259 8.1226 6.66393 7.86005 6.93333C7.5975 7.20273 7.45 7.56811 7.45 7.9491C7.45 8.33008 7.5975 8.69547 7.86005 8.96487C8.1226 9.23426 8.4787 9.38561 8.85 9.38561ZM17.873 17.2074L15.15 20L12.427 17.2067C11.8887 16.6542 11.5223 15.9503 11.3738 15.184C11.2254 14.4177 11.3018 13.6235 11.5932 12.9018C11.8847 12.1801 12.3782 11.5632 13.0112 11.1292C13.6443 10.6952 14.3886 10.4636 15.15 10.4636C15.9114 10.4636 16.6557 10.6952 17.2888 11.1292C17.9218 11.5632 18.4153 12.1801 18.7068 12.9018C18.9982 13.6235 19.0746 14.4177 18.9262 15.184C18.7777 15.9503 18.4112 16.6542 17.873 17.2067V17.2074ZM15.15 15.8499C15.5213 15.8499 15.8774 15.6986 16.1399 15.4292C16.4025 15.1598 16.55 14.7944 16.55 14.4134C16.55 14.0324 16.4025 13.667 16.1399 13.3976C15.8774 13.1282 15.5213 12.9769 15.15 12.9769C14.7787 12.9769 14.4226 13.1282 14.1601 13.3976C13.8975 13.667 13.75 14.0324 13.75 14.4134C13.75 14.7944 13.8975 15.1598 14.1601 15.4292C14.4226 15.6986 14.7787 15.8499 15.15 15.8499Z" fill="black"/>
</svg>
