<svg width="56" height="56" viewBox="0 0 56 56" fill="none" xmlns="http://www.w3.org/2000/svg">
<path d="M56 28C56 12.536 43.464 0 28 0C12.536 0 0 12.536 0 28C0 43.464 12.536 56 28 56C43.464 56 56 43.464 56 28Z" fill="#FFEE9A"/>
<path d="M28.5 17C20.3012 17 12 19.5233 12 24.3448C12 29.1662 20.3012 31.6895 28.5 31.6895C36.7005 31.6895 45 29.1662 45 24.3448C45 19.5233 36.7005 17 28.5 17ZM20.25 33.2205V38.117C22.2911 38.605 24.5483 38.9037 26.85 39V34.1035C24.6266 34.0178 22.4165 33.7221 20.25 33.2205ZM30.15 34.1019V38.9984C32.3736 38.9144 34.5838 38.6187 36.75 38.1154V33.2189C34.5838 33.7222 32.3736 34.0179 30.15 34.1019ZM40.05 32.1743V37.0708C43.0217 35.8385 45 34.0398 45 31.6895V26.793C45 29.1433 43.0217 30.942 40.05 32.1743ZM16.95 37.0708V32.1743C13.98 30.942 12 29.1417 12 26.793V31.6895C12 34.0382 13.98 35.8385 16.95 37.0708Z" fill="black"/>
</svg>
