<svg width="56" height="56" viewBox="0 0 56 56" fill="none" xmlns="http://www.w3.org/2000/svg">
<path d="M56 28C56 12.536 43.464 0 28 0C12.536 0 0 12.536 0 28C0 43.464 12.536 56 28 56C43.464 56 56 43.464 56 28Z" fill="#9AE7FF"/>
<path d="M19.7491 26.6187H21.5413V37.3707H24.2293V27.9627H26.9173V37.3707H29.6053V27.9627H32.2933V37.3707H34.9813V26.6187H36.7729C37.2674 26.6187 37.6693 26.1241 37.6693 25.6786C37.6693 25.4091 37.5208 25.1054 37.2963 24.9589L37.2977 24.9239L37.2836 24.8991L37.3736 24.8769L28.9333 20.5297V19.2583C30.2773 19.9699 31.5884 18.7442 33.6373 19.4814V16.6731C31.587 15.9366 30.2773 17.1616 28.9333 16.45V16.2699C28.9333 16.0475 28.5093 15.8667 28.2613 15.8667C28.0133 15.8667 27.5893 16.0475 27.5893 16.2699V20.5297L19.1497 24.8681L19.3318 24.8823L19.5253 24.8896V24.891C18.8533 25.0375 19.0038 25.4084 19.0038 25.6779C19.0032 26.1241 19.2545 26.6187 19.7491 26.6187ZM20.8693 38.0427L18.8533 40.0587H37.6693L35.6533 38.0427H20.8693ZM35.6533 27.2907V37.3707H36.248L36.5108 37.7423L38.3023 39.4216L38.936 40.0587H44.3893V27.2907H35.6533ZM39.6853 35.3547H37.6693V33.3387H39.6853V35.3547ZM39.6853 31.3227H37.6693V29.3067H39.6853V31.3227ZM42.3733 35.3547H41.0293V33.3387H42.3733V35.3547ZM42.3733 31.3227H41.0293V29.3067H42.3733V31.3227ZM20.2739 37.3707H20.8693V27.2907H12.1333V40.0587H17.5859L18.2189 39.4888L20.0112 37.7416L20.2739 37.3707ZM15.4933 35.3547H14.1493V33.3387H15.4933V35.3547ZM15.4933 31.3227H14.1493V29.3067H15.4933V31.3227ZM18.8533 35.3547H16.8373V33.3387H18.8533V35.3547ZM18.8533 31.3227H16.8373V29.3067H18.8533V31.3227Z" fill="black"/>
</svg>
