<svg width="24" height="24" viewBox="0 0 24 24" fill="none" xmlns="http://www.w3.org/2000/svg">
<path d="M0 12C0 5.37258 5.37258 0 12 0C18.6274 0 24 5.37258 24 12C24 18.6274 18.6274 24 12 24C5.37258 24 0 18.6274 0 12Z" fill="#9AE7FF"/>
<path d="M18.687 16.8446L15.3381 13.4957C15.8602 12.6389 16.1355 11.6545 16.1339 10.6511C16.1339 7.62307 13.5099 5 10.4819 5C9.76195 4.99988 9.04906 5.1416 8.38391 5.41705C7.71877 5.69249 7.11441 6.09628 6.60534 6.60534C6.09628 7.11441 5.69249 7.71877 5.41705 8.38391C5.1416 9.04906 4.99988 9.76195 5 10.4819C5 13.509 7.62396 16.133 10.6511 16.133C11.6214 16.1339 12.5744 15.8757 13.4116 15.3851L16.7781 18.7534C16.9365 18.9113 17.1509 19 17.3745 19C17.5981 19 17.8126 18.9113 17.9709 18.7534L18.8066 17.9178C19.1354 17.589 19.0157 17.1734 18.687 16.8446ZM6.68728 10.4819C6.68716 9.98348 6.78522 9.48995 6.97587 9.02947C7.16651 8.56899 7.446 8.15057 7.79837 7.79811C8.15075 7.44566 8.5691 7.16607 9.02954 6.97532C9.48998 6.78457 9.98348 6.68639 10.4819 6.68639C12.5786 6.68639 14.4466 8.55356 14.4466 10.6511C14.4464 11.6577 14.0464 12.6229 13.3347 13.3347C12.6229 14.0464 11.6577 14.4464 10.6511 14.4466C8.55444 14.4457 6.68728 12.5777 6.68728 10.4819Z" fill="black"/>
</svg>
