<svg width="24" height="24" viewBox="0 0 24 24" fill="none" xmlns="http://www.w3.org/2000/svg">
<path d="M0 12C0 5.37258 5.37258 0 12 0C18.6274 0 24 5.37258 24 12C24 18.6274 18.6274 24 12 24C5.37258 24 0 18.6274 0 12Z" fill="#FFB986"/>
<path d="M8.61963 10.4955C8.38699 9.87605 7.78639 9.45959 7.1248 9.45959C6.46278 9.45959 5.86176 9.87605 5.60904 10.5753L5 14.3896H5.8923V16.8546H8.35175V14.3896H9.2496L8.64056 10.5753L8.61963 10.4955Z" fill="black"/>
<path d="M8.35178 8.22705C8.35178 7.54741 7.80447 7 7.12483 7C6.44519 7 5.89233 7.54741 5.89233 8.22705C5.89233 8.90669 6.44519 9.45955 7.12483 9.45955C7.80447 9.45955 8.35178 8.90669 8.35178 8.22705Z" fill="black"/>
<path d="M13.495 10.4955C13.2622 9.87605 12.6616 9.45959 12 9.45959C11.338 9.45959 10.7371 9.87605 10.4843 10.5753L9.87524 14.3896H10.7675V16.8546H13.2271V14.3896H14.1248L13.5158 10.5753L13.495 10.4955Z" fill="black"/>
<path d="M13.2326 8.22705C13.2326 7.54741 12.6797 7 12.0001 7C11.3204 7 10.7676 7.54741 10.7676 8.22705C10.7676 8.90669 11.3204 9.45955 12.0001 9.45955C12.6797 9.45955 13.2326 8.90669 13.2326 8.22705Z" fill="black"/>
<path d="M18.3911 10.5753L18.3702 10.4955C18.1375 9.87605 17.5369 9.45959 16.8753 9.45959C16.2134 9.45959 15.6124 9.87605 15.3595 10.5753L14.7505 14.3896H15.6428V16.8546H18.1023V14.3896H19.0001L18.3911 10.5753Z" fill="black"/>
<path d="M18.1021 8.22705C18.1021 7.54741 17.5547 7 16.8751 7C16.1954 7 15.6426 7.54741 15.6426 8.22705C15.6426 8.90669 16.1954 9.45955 16.8751 9.45955C17.5547 9.45955 18.1021 8.90669 18.1021 8.22705Z" fill="black"/>
</svg>
