<svg width="24" height="24" viewBox="0 0 24 24" fill="none" xmlns="http://www.w3.org/2000/svg">
<path d="M0 12C0 5.37258 5.37258 0 12 0C18.6274 0 24 5.37258 24 12C24 18.6274 18.6274 24 12 24C5.37258 24 0 18.6274 0 12Z" fill="#C3EE8D"/>
<path d="M6.4 6V11.808C4.96 12.32 4 13.68 4 15.2C4 17.2 5.6 18.8 7.6 18.8C9.432 18.8 10.968 17.424 11.176 15.6H14.536C14.448 15.856 14.4 16.128 14.4 16.4C14.4 17.0365 14.6529 17.647 15.1029 18.0971C15.553 18.5471 16.1635 18.8 16.8 18.8C17.4365 18.8 18.047 18.5471 18.4971 18.0971C18.9471 17.647 19.2 17.0365 19.2 16.4C19.2 16.128 19.152 15.856 19.056 15.6H20V13.2C20 12.312 19.288 11.6 18.4 11.6H14.432L13.32 6H6.4ZM8 7.6H12L12.8 11.6V14H10.992C10.7641 13.3646 10.3632 12.8055 9.83454 12.3857C9.3059 11.9659 8.67052 11.7021 8 11.624V7.6ZM7.6 13.4C8.07739 13.4 8.53523 13.5896 8.87279 13.9272C9.21036 14.2648 9.4 14.7226 9.4 15.2C9.4 15.6774 9.21036 16.1352 8.87279 16.4728C8.53523 16.8104 8.07739 17 7.6 17C7.12261 17 6.66477 16.8104 6.32721 16.4728C5.98964 16.1352 5.8 15.6774 5.8 15.2C5.8 14.7226 5.98964 14.2648 6.32721 13.9272C6.66477 13.5896 7.12261 13.4 7.6 13.4ZM16.8 15.2C17.1183 15.2 17.4235 15.3264 17.6485 15.5515C17.8736 15.7765 18 16.0817 18 16.4C18 16.7183 17.8736 17.0235 17.6485 17.2485C17.4235 17.4736 17.1183 17.6 16.8 17.6C16.4817 17.6 16.1765 17.4736 15.9515 17.2485C15.7264 17.0235 15.6 16.7183 15.6 16.4C15.6 16.0817 15.7264 15.7765 15.9515 15.5515C16.1765 15.3264 16.4817 15.2 16.8 15.2Z" fill="black"/>
</svg>
