<svg width="24" height="24" viewBox="0 0 24 24" fill="none" xmlns="http://www.w3.org/2000/svg">
<path d="M0 12C0 5.37258 5.37258 0 12 0C18.6274 0 24 5.37258 24 12C24 18.6274 18.6274 24 12 24C5.37258 24 0 18.6274 0 12Z" fill="#FFB986"/>
<path fill-rule="evenodd" clip-rule="evenodd" d="M12 8C11.17 8 10.5 7.33 10.5 6.5C10.5 5.67 11.17 5 12 5C12.83 5 13.5 5.67 13.5 6.5C13.5 7.33 12.83 8 12 8ZM19 14C19 15.11 18.11 16 17 16H16C14.89 16 14 15.11 14 14L16 10H15C14.45 10 14 9.55 14 9H13V17C13.42 17 14 17.45 14 18H15C15.42 18 16 18.45 16 19H8C8 18.45 8.58 18 9 18H10C10 17.45 10.58 17 11 17H11.03L11 9H10C10 9.55 9.55 10 9 10H8L10 14C10 15.11 9.11 16 8 16H7C5.89 16 5 15.11 5 14L7 10H6V9H9C9 8.45 9.45 8 10 8H14C14.55 8 15 8.45 15 9H18V10H17L19 14ZM7.5 11L6 14H9L7.5 11ZM18 14L16.5 11L15 14H18Z" fill="black"/>
</svg>
