<svg width="24" height="24" viewBox="0 0 24 24" fill="none" xmlns="http://www.w3.org/2000/svg">
<path d="M0 12C0 5.37258 5.37258 0 12 0C18.6274 0 24 5.37258 24 12C24 18.6274 18.6274 24 12 24C5.37258 24 0 18.6274 0 12Z" fill="#C3EE8D"/>
<path d="M15.3167 18.1785C15.6082 13.5099 17.3783 9.82162 17.3783 9.82162C13.8737 11.7905 13.2347 16.6247 13.1215 18.5973C13.2849 11.5835 15.3889 6.54321 15.3889 6.54321C11.2616 10.0535 10.9323 16.9277 10.9263 18.9097C10.8626 17.1934 10.362 11.9043 6.65473 9.82162C6.65473 9.82162 8.55124 13.7733 8.74139 18.6736C8.63598 17.355 8.03496 14.7455 5 13.8258C5 13.8258 6.57571 15.7028 6.57571 19.4567H17.4243C17.4243 15.7028 19 13.8258 19 13.8258C16.3097 14.641 15.5321 16.7839 15.3167 18.1785Z" fill="black"/>
<path d="M7.38843 9.38306H9.38794V7.38342H11.3879V5.3826H9.38794V3.38306H7.38843V5.3826H5.38794V7.38342H7.38843V9.38306Z" fill="black"/>
</svg>
