<?xml version="1.0" encoding="iso-8859-1"?>
<!-- Generator: Adobe Illustrator 23.0.1, SVG Export Plug-In . SVG Version: 6.00 Build 0)  -->
<svg version="1.1" id="Layer_1" xmlns="http://www.w3.org/2000/svg" xmlns:xlink="http://www.w3.org/1999/xlink" x="0px" y="0px"
	 viewBox="0 0 51.267 51.187" style="enable-background:new 0 0 51.267 51.187;" xml:space="preserve">
<g>
	<defs>
		<rect id="SVGID_1_" y="0" width="51.267" height="51.187"/>
	</defs>
	<clipPath id="SVGID_2_">
		<use xlink:href="#SVGID_1_"  style="overflow:visible;"/>
	</clipPath>
	<path style="clip-path:url(#SVGID_2_);fill:#69A3AF;" d="M47.677,25.904c0,12.145-9.846,21.99-21.991,21.99
		s-21.99-9.845-21.99-21.99c0-12.146,9.845-21.991,21.99-21.991S47.677,13.758,47.677,25.904"/>
	<path style="clip-path:url(#SVGID_2_);" d="M27.915,3.023c0,1.29-1.046,2.336-2.337,2.336c-1.29,0-2.336-1.046-2.336-2.336
		c0-1.29,1.046-2.336,2.336-2.336C26.869,0.687,27.915,1.733,27.915,3.023"/>
	<path style="clip-path:url(#SVGID_2_);" d="M26.222,15.013h3.068V7.557c0,0,0.196-2.458-3.712-2.458h-0.259
		c-3.908,0-3.712,2.458-3.712,2.458v7.456h3.068"/>
	<polygon style="clip-path:url(#SVGID_2_);" points="21.606,15.013 29.29,15.013 25.958,5.099 25.058,5.155 	"/>
	<path style="clip-path:url(#SVGID_2_);" d="M22.982,48.232c0-1.29,1.046-2.336,2.336-2.336c1.29,0,2.336,1.046,2.336,2.336
		s-1.046,2.336-2.336,2.336C24.028,50.568,22.982,49.522,22.982,48.232"/>
	<path style="clip-path:url(#SVGID_2_);" d="M24.675,36.243h-3.068v7.455c0,0-0.196,2.458,3.712,2.458h0.259
		c3.908,0,3.712-2.458,3.712-2.458v-7.455h-3.068"/>
	<polygon style="clip-path:url(#SVGID_2_);" points="29.29,36.243 21.606,36.243 24.938,46.156 25.838,46.1 	"/>
	<path style="clip-path:url(#SVGID_2_);" d="M48.182,27.619c-1.29,0-2.336-1.046-2.336-2.336c0-1.29,1.046-2.336,2.336-2.336
		c1.291,0,2.337,1.046,2.337,2.336C50.519,26.573,49.473,27.619,48.182,27.619"/>
	<path style="clip-path:url(#SVGID_2_);" d="M36.193,25.926v3.069h7.456c0,0,2.458,0.196,2.458-3.712v-0.26
		c0-3.907-2.458-3.711-2.458-3.711h-7.456v3.068"/>
	<polygon style="clip-path:url(#SVGID_2_);" points="36.193,21.311 36.193,28.995 46.107,25.663 46.051,24.762 	"/>
	<path style="clip-path:url(#SVGID_2_);" d="M2.974,22.686c1.29,0,2.336,1.046,2.336,2.336c0,1.29-1.046,2.336-2.336,2.336
		c-1.291,0-2.337-1.046-2.337-2.336C0.638,23.732,1.683,22.686,2.974,22.686"/>
	<path style="clip-path:url(#SVGID_2_);" d="M14.964,24.38v-3.068H7.508c0,0-2.458-0.196-2.458,3.711v0.26
		c0,3.908,2.458,3.712,2.458,3.712h7.456v-3.069"/>
	<polygon style="clip-path:url(#SVGID_2_);" points="14.964,28.995 14.964,21.311 5.05,24.643 5.106,25.543 	"/>
	<path style="clip-path:url(#SVGID_2_);" d="M43.306,10.783c-0.913,0.912-2.392,0.912-3.304,0c-0.912-0.913-0.912-2.392,0-3.304
		c0.912-0.912,2.391-0.912,3.304,0C44.218,8.391,44.218,9.87,43.306,10.783"/>
	<path style="clip-path:url(#SVGID_2_);" d="M33.632,18.063l2.169,2.17l5.272-5.273c0,0,1.876-1.599-0.886-4.362l-0.184-0.184
		C37.24,7.651,35.64,9.528,35.64,9.528l-5.272,5.271l2.17,2.17"/>
	<polygon style="clip-path:url(#SVGID_2_);" points="30.368,14.8 35.801,20.234 40.455,10.867 39.779,10.271 	"/>
	<path style="clip-path:url(#SVGID_2_);" d="M7.851,39.263c0.913-0.912,2.392-0.912,3.304,0c0.912,0.912,0.912,2.392,0,3.304
		c-0.912,0.912-2.391,0.912-3.304,0C6.938,41.654,6.938,40.174,7.851,39.263"/>
	<path style="clip-path:url(#SVGID_2_);" d="M17.525,31.982l-2.169-2.17l-5.272,5.272c0,0-1.876,1.6,0.886,4.362l0.184,0.184
		c2.763,2.763,4.363,0.887,4.363,0.887l5.272-5.272l-2.17-2.17"/>
	<polygon style="clip-path:url(#SVGID_2_);" points="20.789,35.245 15.356,29.812 10.702,39.179 11.378,39.775 	"/>
	<path style="clip-path:url(#SVGID_2_);" d="M11.339,7.9c0.912,0.912,0.912,2.391,0,3.303c-0.912,0.913-2.392,0.913-3.304,0
		c-0.912-0.912-0.912-2.391,0-3.303C8.947,6.987,10.427,6.987,11.339,7.9"/>
	<path style="clip-path:url(#SVGID_2_);" d="M18.619,17.575l2.17-2.17l-5.272-5.272c0,0-1.6-1.876-4.363,0.886l-0.183,0.184
		c-2.763,2.763-0.887,4.363-0.887,4.363l5.272,5.272l2.169-2.17"/>
	<polygon style="clip-path:url(#SVGID_2_);" points="15.356,20.838 20.789,15.405 11.422,10.751 10.826,11.427 	"/>
	<path style="clip-path:url(#SVGID_2_);" d="M39.818,43.355c-0.912-0.912-0.912-2.392,0-3.304c0.912-0.912,2.392-0.912,3.304,0
		c0.912,0.912,0.912,2.392,0,3.304C42.21,44.267,40.73,44.267,39.818,43.355"/>
	<path style="clip-path:url(#SVGID_2_);" d="M32.538,33.681l-2.17,2.17l5.272,5.271c0,0,1.6,1.876,4.363-0.886l0.183-0.184
		c2.763-2.763,0.887-4.362,0.887-4.362l-5.272-5.273l-2.169,2.17"/>
	<polygon style="clip-path:url(#SVGID_2_);" points="35.801,30.417 30.368,35.851 39.735,40.504 40.331,39.828 	"/>
</g>
</svg>
