<?xml version="1.0" encoding="iso-8859-1"?>
<!-- Generator: Adobe Illustrator 23.0.1, SVG Export Plug-In . SVG Version: 6.00 Build 0)  -->
<svg version="1.1" id="Layer_1" xmlns="http://www.w3.org/2000/svg" xmlns:xlink="http://www.w3.org/1999/xlink" x="0px" y="0px"
	 viewBox="0 0 47.553 46.733" style="enable-background:new 0 0 47.553 46.733;" xml:space="preserve">
<g>
	<defs>
		<rect id="SVGID_1_" y="0" width="47.553" height="46.733"/>
	</defs>
	<clipPath id="SVGID_2_">
		<use xlink:href="#SVGID_1_"  style="overflow:visible;"/>
	</clipPath>
	<path style="clip-path:url(#SVGID_2_);fill:#C893B2;" d="M46.362,23.284c0,12.146-9.846,21.991-21.991,21.991
		S2.381,35.43,2.381,23.284s9.845-21.991,21.99-21.991S46.362,11.138,46.362,23.284"/>
	<polygon style="clip-path:url(#SVGID_2_);" points="4.812,36.111 1.524,36.264 1.579,24.501 4.868,24.346 	"/>
	<polygon style="clip-path:url(#SVGID_2_);fill:none;stroke:#000000;stroke-miterlimit:10;" points="4.812,36.111 1.524,36.264 
		1.579,24.501 4.868,24.346 	"/>
	<path style="clip-path:url(#SVGID_2_);" d="M5.818,25.334v9.604c0,0,2.879,0.184,3.141,0.393c0.261,0.21,10.416,4.764,10.416,4.764
		s1.203,0.785,3.715,0.209c2.513-0.576,6.857-1.152,6.857-1.152l1.414-0.052c0,0,2.873-1.1,6.28-4.162c0,0,0.877-0.719,1.132-1.759
		c0,0,0.216-0.57-0.628-0.628c0,0,0.884-0.864,0.569-1.571c-0.314-0.707-1.138-1.354-3.14-0.765c0,0-0.943,0.177-2.296,1.472
		c-1.355,1.295-3.16,1.708-7.479,1.826c0,0-2.021-0.118-4.024-1.061c0,0-0.883-0.471-1.295-0.529c0,0,1.531-0.373,1.963-0.276
		c0.432,0.099,4.396,0.393,4.75,0.295c0.354-0.098,1.845,0.158,1.845,0.158s1.766,0.725,2.591-1.08
		c0.824-1.806-0.158-2.788-1.099-2.964c-0.942-0.177-2.493-1.159-6.066-1.159c-3.572,0-5.083-1.563-5.083-1.563
		S16.123,22.828,5.818,25.334"/>
	<path style="clip-path:url(#SVGID_2_);fill:none;stroke:#C893B2;stroke-width:0.5;stroke-miterlimit:10;" d="M5.818,25.334v9.604
		c0,0,2.879,0.184,3.141,0.393c0.261,0.21,10.416,4.764,10.416,4.764s1.203,0.785,3.715,0.209c2.513-0.576,6.857-1.152,6.857-1.152
		l1.414-0.052c0,0,2.873-1.1,6.28-4.162c0,0,0.877-0.719,1.132-1.759c0,0,0.216-0.57-0.628-0.628c0,0,0.884-0.864,0.569-1.571
		c-0.314-0.707-1.138-1.354-3.14-0.765c0,0-0.943,0.177-2.296,1.472c-1.355,1.295-3.16,1.708-7.479,1.826
		c0,0-2.021-0.118-4.024-1.061c0,0-0.883-0.471-1.295-0.529c0,0,1.531-0.373,1.963-0.276c0.432,0.099,4.396,0.393,4.75,0.295
		c0.354-0.098,1.845,0.158,1.845,0.158s1.766,0.725,2.591-1.08c0.824-1.806-0.158-2.788-1.099-2.964
		c-0.942-0.177-2.493-1.159-6.066-1.159c-3.572,0-5.083-1.563-5.083-1.563S16.123,22.828,5.818,25.334z"/>
	<path style="clip-path:url(#SVGID_2_);" d="M18.692,13.469c-0.788-1.753-1.658-4.913-1.658-4.913l5.38,0.726
		c0,0,3.051,0.61,1.799,2.336l-2.445,3.189C21.768,14.807,20.064,16.523,18.692,13.469"/>
	<path style="clip-path:url(#SVGID_2_);fill:none;stroke:#000000;stroke-miterlimit:10;" d="M18.692,13.469
		c-0.788-1.753-1.658-4.913-1.658-4.913l5.38,0.726c0,0,3.051,0.61,1.799,2.336l-2.445,3.189
		C21.768,14.807,20.064,16.523,18.692,13.469z"/>
	<path style="clip-path:url(#SVGID_2_);fill:none;stroke:#000000;stroke-width:1.3;stroke-miterlimit:10;" d="M22.446,13.595
		c0,0,6.309,3.696,3.45,11.833"/>
	<path style="clip-path:url(#SVGID_2_);" d="M33.135,16.911c0.468-1.435,0.876-3.966,0.876-3.966l-4.183,1.118
		c0,0-2.355,0.785-1.215,1.99l2.21,2.21C30.823,18.263,32.32,19.411,33.135,16.911"/>
	<path style="clip-path:url(#SVGID_2_);fill:none;stroke:#000000;stroke-miterlimit:10;" d="M33.135,16.911
		c0.468-1.435,0.876-3.966,0.876-3.966l-4.183,1.118c0,0-2.355,0.785-1.215,1.99l2.21,2.21
		C30.823,18.263,32.32,19.411,33.135,16.911z"/>
	<path style="clip-path:url(#SVGID_2_);fill:none;stroke:#000000;stroke-width:1.3;stroke-miterlimit:10;" d="M31.239,15.695
		c-0.974,0.118-1.421,1.563-1.421,1.563s-2.56-0.128-3.282,2.545"/>
</g>
</svg>
