<?xml version="1.0" encoding="iso-8859-1"?>
<!-- Generator: Adobe Illustrator 23.0.1, SVG Export Plug-In . SVG Version: 6.00 Build 0)  -->
<svg version="1.1" id="Layer_1" xmlns="http://www.w3.org/2000/svg" xmlns:xlink="http://www.w3.org/1999/xlink" x="0px" y="0px"
	 viewBox="0 0 48.183 48.859" style="enable-background:new 0 0 48.183 48.859;" xml:space="preserve">
<g>
	<defs>
		<rect id="SVGID_1_" y="0" width="48.183" height="48.859"/>
	</defs>
	<clipPath id="SVGID_2_">
		<use xlink:href="#SVGID_1_"  style="overflow:visible;"/>
	</clipPath>
	<path style="clip-path:url(#SVGID_2_);fill:#69A3AF;" d="M46.568,24.697c0,12.146-9.846,21.991-21.991,21.991
		c-12.146,0-21.99-9.845-21.99-21.991s9.844-21.99,21.99-21.99C36.722,2.707,46.568,12.551,46.568,24.697"/>
	<path style="clip-path:url(#SVGID_2_);fill:none;stroke:#000000;stroke-width:1.5;stroke-miterlimit:10;" d="M3.554,39.01
		c-0.014-0.015-0.028-0.029-0.043-0.044c-1.659-1.716-1.638-4.452,0.06-6.141c1.712-1.703,4.481-1.696,6.185,0.017
		c1.703,1.712,1.695,4.481-0.016,6.185l-3.084,4.058L3.554,39.01z"/>
	<path style="clip-path:url(#SVGID_2_);fill:none;stroke:#000000;stroke-width:1.5;stroke-miterlimit:10;" d="M31.822,9.764
		c-0.015-0.015-0.028-0.029-0.043-0.044c-1.659-1.716-1.638-4.452,0.06-6.141c1.712-1.703,4.481-1.695,6.185,0.017
		c1.703,1.713,1.695,4.481-0.016,6.185l-3.085,4.058L31.822,9.764z"/>
	
		<line style="clip-path:url(#SVGID_2_);fill:none;stroke:#000000;stroke-width:1.8;stroke-miterlimit:10;" x1="7.873" y1="47.087" x2="9.183" y2="46.356"/>
	
		<line style="clip-path:url(#SVGID_2_);fill:none;stroke:#000000;stroke-width:1.8;stroke-miterlimit:10;stroke-dasharray:3.031,3.031;" x1="11.827" y1="44.877" x2="26.376" y2="36.743"/>
	<polyline style="clip-path:url(#SVGID_2_);fill:none;stroke:#000000;stroke-width:1.8;stroke-miterlimit:10;" points="
		27.698,36.003 29.008,35.272 27.665,34.604 	"/>
	
		<line style="clip-path:url(#SVGID_2_);fill:none;stroke:#000000;stroke-width:1.8;stroke-miterlimit:10;stroke-dasharray:3.83,3.83;" x1="24.235" y1="32.896" x2="19.091" y2="30.336"/>
	<polyline style="clip-path:url(#SVGID_2_);fill:none;stroke:#000000;stroke-width:1.8;stroke-miterlimit:10;" points="
		17.378,29.483 16.034,28.815 17.323,28.046 	"/>
	
		<line style="clip-path:url(#SVGID_2_);fill:none;stroke:#000000;stroke-width:1.8;stroke-miterlimit:10;stroke-dasharray:2.732,2.732;" x1="19.67" y1="26.648" x2="32.575" y2="18.954"/>
	
		<line style="clip-path:url(#SVGID_2_);fill:none;stroke:#000000;stroke-width:1.8;stroke-miterlimit:10;" x1="33.749" y1="18.254" x2="35.037" y2="17.486"/>
	<path style="clip-path:url(#SVGID_2_);" d="M7.173,34.997c0,0.334-0.271,0.605-0.605,0.605c-0.334,0-0.605-0.271-0.605-0.605
		s0.271-0.604,0.605-0.604C6.902,34.393,7.173,34.663,7.173,34.997"/>
	<path style="clip-path:url(#SVGID_2_);fill:none;stroke:#000000;stroke-width:1.5;stroke-miterlimit:10;" d="M7.173,34.997
		c0,0.334-0.271,0.605-0.605,0.605c-0.334,0-0.605-0.271-0.605-0.605s0.271-0.604,0.605-0.604
		C6.902,34.393,7.173,34.663,7.173,34.997z"/>
	<path style="clip-path:url(#SVGID_2_);" d="M35.528,5.635c0,0.334-0.271,0.604-0.605,0.604s-0.605-0.27-0.605-0.604
		c0-0.334,0.271-0.605,0.605-0.605S35.528,5.301,35.528,5.635"/>
	<path style="clip-path:url(#SVGID_2_);fill:none;stroke:#000000;stroke-width:1.5;stroke-miterlimit:10;" d="M35.528,5.635
		c0,0.334-0.271,0.604-0.605,0.604s-0.605-0.27-0.605-0.604c0-0.334,0.271-0.605,0.605-0.605S35.528,5.301,35.528,5.635z"/>
</g>
</svg>
