<?xml version="1.0" encoding="iso-8859-1"?>
<!-- Generator: Adobe Illustrator 23.0.1, SVG Export Plug-In . SVG Version: 6.00 Build 0)  -->
<svg version="1.1" id="Layer_1" xmlns="http://www.w3.org/2000/svg" xmlns:xlink="http://www.w3.org/1999/xlink" x="0px" y="0px"
	 viewBox="0 0 47.054 45.288" style="enable-background:new 0 0 47.054 45.288;" xml:space="preserve">
<g>
	<defs>
		<rect id="SVGID_1_" y="0.001" width="47.054" height="45.287"/>
	</defs>
	<clipPath id="SVGID_2_">
		<use xlink:href="#SVGID_1_"  style="overflow:visible;"/>
	</clipPath>
	<path style="clip-path:url(#SVGID_2_);fill:#F2E9A0;" d="M45.431,22.678c0,12.146-9.846,21.991-21.991,21.991
		S1.45,34.824,1.45,22.678c0-12.145,9.845-21.991,21.99-21.991S45.431,10.533,45.431,22.678"/>
	<polygon style="clip-path:url(#SVGID_2_);" points="2.45,24.783 0.486,24.875 0.519,17.85 2.483,17.759 	"/>
	<path style="clip-path:url(#SVGID_2_);" d="M3.05,18.348v5.735c0,0,1.719,0.109,1.875,0.234s6.22,2.844,6.22,2.844
		s0.718,0.469,2.218,0.125c1.5-0.343,4.094-0.687,4.094-0.687l0.845-0.031c0,0,1.716-0.657,3.75-2.485c0,0,0.523-0.43,0.676-1.051
		c0,0,0.129-0.34-0.375-0.375c0,0,0.527-0.516,0.34-0.937c-0.188-0.422-0.68-0.809-1.875-0.457c0,0-0.563,0.105-1.372,0.878
		c-0.808,0.774-1.887,1.02-4.465,1.09c0,0-1.207-0.07-2.403-0.633c0,0-0.527-0.281-0.773-0.316c0,0,0.914-0.223,1.172-0.164
		s2.625,0.234,2.836,0.176c0.211-0.059,1.101,0.094,1.101,0.094s1.056,0.433,1.548-0.645c0.492-1.078-0.094-1.665-0.656-1.77
		c-0.564-0.105-1.489-0.691-3.622-0.691s-3.035-0.934-3.035-0.934S9.203,16.852,3.05,18.348"/>
	<path style="clip-path:url(#SVGID_2_);fill:none;stroke:#F2E9A0;stroke-width:0.5;stroke-miterlimit:10;" d="M3.05,18.348v5.735
		c0,0,1.719,0.109,1.875,0.234s6.22,2.844,6.22,2.844s0.718,0.469,2.218,0.125c1.5-0.343,4.094-0.687,4.094-0.687l0.845-0.031
		c0,0,1.716-0.657,3.75-2.485c0,0,0.523-0.43,0.676-1.051c0,0,0.129-0.34-0.375-0.375c0,0,0.527-0.516,0.34-0.937
		c-0.188-0.422-0.68-0.809-1.875-0.457c0,0-0.563,0.105-1.372,0.878c-0.808,0.774-1.887,1.02-4.465,1.09c0,0-1.207-0.07-2.403-0.633
		c0,0-0.527-0.281-0.773-0.316c0,0,0.914-0.223,1.172-0.164s2.625,0.234,2.836,0.176c0.211-0.059,1.101,0.094,1.101,0.094
		s1.056,0.433,1.548-0.645c0.492-1.078-0.094-1.665-0.656-1.77c-0.564-0.105-1.489-0.691-3.622-0.691s-3.035-0.934-3.035-0.934
		S9.203,16.852,3.05,18.348z"/>
	<polygon style="clip-path:url(#SVGID_2_);" points="44.431,24.783 46.394,24.875 46.361,17.85 44.398,17.759 	"/>
	<path style="clip-path:url(#SVGID_2_);" d="M43.831,18.348v5.735c0,0-1.719,0.109-1.875,0.234c-0.156,0.125-6.22,2.844-6.22,2.844
		s-0.718,0.469-2.218,0.125c-1.501-0.343-4.095-0.687-4.095-0.687l-0.844-0.031c0,0-1.716-0.657-3.75-2.485
		c0,0-0.523-0.43-0.677-1.051c0,0-0.129-0.34,0.376-0.375c0,0-0.528-0.516-0.341-0.937c0.189-0.422,0.681-0.809,1.876-0.457
		c0,0,0.563,0.105,1.372,0.878c0.808,0.774,1.886,1.02,4.464,1.09c0,0,1.208-0.07,2.404-0.633c0,0,0.527-0.281,0.773-0.316
		c0,0-0.914-0.223-1.172-0.164s-2.626,0.234-2.837,0.176c-0.211-0.059-1.101,0.094-1.101,0.094s-1.055,0.433-1.547-0.645
		c-0.492-1.078,0.094-1.665,0.656-1.77c0.563-0.105,1.488-0.691,3.621-0.691c2.134,0,3.036-0.934,3.036-0.934
		S37.678,16.852,43.831,18.348"/>
	<path style="clip-path:url(#SVGID_2_);fill:none;stroke:#F2E9A0;stroke-width:0.5;stroke-miterlimit:10;" d="M43.831,18.348v5.735
		c0,0-1.719,0.109-1.875,0.234c-0.156,0.125-6.22,2.844-6.22,2.844s-0.718,0.469-2.218,0.125c-1.501-0.343-4.095-0.687-4.095-0.687
		l-0.844-0.031c0,0-1.716-0.657-3.75-2.485c0,0-0.523-0.43-0.677-1.051c0,0-0.129-0.34,0.376-0.375c0,0-0.528-0.516-0.341-0.937
		c0.189-0.422,0.681-0.809,1.876-0.457c0,0,0.563,0.105,1.372,0.878c0.808,0.774,1.886,1.02,4.464,1.09c0,0,1.208-0.07,2.404-0.633
		c0,0,0.527-0.281,0.773-0.316c0,0-0.914-0.223-1.172-0.164s-2.626,0.234-2.837,0.176c-0.211-0.059-1.101,0.094-1.101,0.094
		s-1.055,0.433-1.547-0.645c-0.492-1.078,0.094-1.665,0.656-1.77c0.563-0.105,1.488-0.691,3.621-0.691
		c2.134,0,3.036-0.934,3.036-0.934S37.678,16.852,43.831,18.348z"/>
</g>
</svg>
