<svg width="24" height="24" viewBox="0 0 24 24" fill="none" xmlns="http://www.w3.org/2000/svg">
<path d="M0 12C0 5.37258 5.37258 0 12 0C18.6274 0 24 5.37258 24 12C24 18.6274 18.6274 24 12 24C5.37258 24 0 18.6274 0 12Z" fill="#FFB986"/>
<path d="M15.9139 11.9528C17.5922 11.9528 18.9528 11.1798 18.9528 10.2264C18.9528 9.27292 17.5922 8.5 15.9139 8.5C14.2356 8.5 12.875 9.27292 12.875 10.2264C12.875 11.1798 14.2356 11.9528 15.9139 11.9528Z" fill="black"/>
<path fill-rule="evenodd" clip-rule="evenodd" d="M15.9593 12.9458C13.7858 12.9458 12.9204 12.0349 12.9204 11.5073V13.7674C12.9204 14.7212 14.281 15.4929 15.9593 15.4929C17.6393 15.4929 18.9999 14.7212 18.9999 13.7674V11.5616C18.9999 12.0901 18.1337 12.9458 15.9593 12.9458Z" fill="black"/>
<path fill-rule="evenodd" clip-rule="evenodd" d="M15.9593 16.4379C14.015 16.4379 12.9204 15.5621 12.9204 15.0344V17.2736C12.9204 18.2273 14.281 18.9999 15.9593 18.9999C17.6393 18.9999 18.9999 18.2273 18.9999 17.2736V15.0073C18.9999 15.5349 17.9044 16.4379 15.9593 16.4379Z" fill="black"/>
<path d="M8.44488 8.45275C10.3474 8.45275 11.8898 7.67983 11.8898 6.72638C11.8898 5.77292 10.3474 5 8.44488 5C6.54232 5 5 5.77292 5 6.72638C5 7.67983 6.54232 8.45275 8.44488 8.45275Z" fill="black"/>
<path fill-rule="evenodd" clip-rule="evenodd" d="M8.55425 9.44582C6.09112 9.44582 5.10938 8.53495 5.10938 8.00732V10.2674C5.10938 11.2212 6.652 11.9929 8.55425 11.9929C10.4583 11.9929 12 11.2212 12 10.2674V8.06157C12 8.59007 11.0174 9.44582 8.55425 9.44582Z" fill="black"/>
<path fill-rule="evenodd" clip-rule="evenodd" d="M8.55425 12.9379C6.35012 12.9379 5.10938 12.0621 5.10938 11.5344V13.7736C5.10938 14.7273 6.652 15.4999 8.55425 15.4999C10.4583 15.4999 12 14.7273 12 13.7736V11.5073C12 12.0349 10.7575 12.9379 8.55425 12.9379Z" fill="black"/>
<path fill-rule="evenodd" clip-rule="evenodd" d="M8.55425 16.4379C6.35012 16.4379 5.10938 15.5621 5.10938 15.0344V17.2736C5.10938 18.2273 6.652 18.9999 8.55425 18.9999C10.4583 18.9999 12 18.2273 12 17.2736V15.0073C12 15.5349 10.7575 16.4379 8.55425 16.4379Z" fill="black"/>
</svg>
