<svg width="24" height="24" viewBox="0 0 24 24" fill="none" xmlns="http://www.w3.org/2000/svg">
<path d="M0 12C0 5.37258 5.37258 0 12 0C18.6274 0 24 5.37258 24 12C24 18.6274 18.6274 24 12 24C5.37258 24 0 18.6274 0 12Z" fill="#FFB986"/>
<path d="M8.8 5C8.03 5 7.4 5.63 7.4 6.4C7.4 7.17 8.03 7.8 8.8 7.8C9.57 7.8 10.2 7.177 10.2 6.4C10.2 5.623 9.577 5 8.8 5ZM7.4 8.5C6.623 8.5 6 9.123 6 9.9V14.1H7.4V19H10.9V11.72L12.671 14.8H14.379L15.1 13.862V19H17.9V15.5H18.6V13.4C18.6 12.623 17.977 12 17.2 12H15.45C15.03 12 14.659 12.182 14.4 12.476C14.169 12.77 13.924 13.092 13.7 13.4H13.483L10.9 8.962C10.788 8.766 10.354 8.5 9.85 8.5H7.4ZM16.5 9.2C15.919 9.2 15.45 9.669 15.45 10.25C15.45 10.831 15.919 11.3 16.5 11.3C17.081 11.3 17.55 10.831 17.55 10.25C17.55 9.669 17.081 9.2 16.5 9.2Z" fill="black"/>
</svg>
