<svg width="64" height="64" viewBox="0 0 64 64" fill="none" xmlns="http://www.w3.org/2000/svg">
<rect width="64" height="64" rx="8" fill="#E8F2AE"/>
<path d="M36.4932 38.0933L27.3199 46.2533L28.7279 52.7147L22.0932 59.3493L15.4079 48.8933L4.9519 42.208L11.5866 35.5733L18.3999 37.3333L26.2052 27.8053L9.74924 16.8347L17.2906 9.29066L37.8666 16.152L47.9812 6.03733C51.1039 2.912 55.9412 2.68266 58.7812 5.52266C61.6212 8.36266 61.3892 13.1973 58.2666 16.3227L48.1519 26.4373L55.0079 47.0053L47.4666 54.5493L36.4959 38.0933H36.4932Z" fill="#333333"/>
<g filter="url(#filter0_d)">
<path d="M33.0333 24.3666C32.1604 25.2396 31.669 26.4228 31.6665 27.6572C31.664 28.8916 32.1507 30.0768 33.0199 30.9533C33.9999 28.6866 35.7466 26.7933 37.9266 25.6666C36.045 27.2587 34.7748 29.455 34.3333 31.88C36.0666 32.7 38.1999 32.4 39.6333 30.9666C41.9533 28.6466 42.3333 21.6666 42.3333 21.6666C42.3333 21.6666 35.3533 22.0466 33.0333 24.3666Z" fill="#E8F2AE"/>
<path d="M41.7913 22.2086C41.7781 22.3611 41.7613 22.5403 41.7403 22.7417C41.6694 23.4229 41.5512 24.3535 41.362 25.3537C41.1724 26.3557 40.9137 27.4163 40.5648 28.3616C40.2128 29.3155 39.7848 30.108 39.2797 30.6131C38.0982 31.7946 36.3816 32.1145 34.9046 31.5772C35.3856 29.4223 36.5584 27.4792 38.2496 26.0483L37.697 25.2224C35.6482 26.2813 33.9679 27.9839 32.9038 30.0334C32.4253 29.3399 32.1648 28.5123 32.1665 27.6582C32.1687 26.556 32.6075 25.4996 33.3868 24.7202C33.3868 24.7202 33.3868 24.7202 33.3868 24.7202M41.7913 22.2086L33.3868 24.7202M41.7913 22.2086C41.6388 22.2218 41.4595 22.2386 41.2581 22.2596C40.577 22.3305 39.6464 22.4487 38.6462 22.6379C37.6442 22.8275 36.5836 23.0862 35.6382 23.4351C34.6844 23.7871 33.8919 24.2151 33.3868 24.7202M41.7913 22.2086L33.3868 24.7202" stroke="black"/>
</g>
<defs>
<filter id="filter0_d" x="27.6665" y="21.6666" width="18.6668" height="18.6629" filterUnits="userSpaceOnUse" color-interpolation-filters="sRGB">
<feFlood flood-opacity="0" result="BackgroundImageFix"/>
<feColorMatrix in="SourceAlpha" type="matrix" values="0 0 0 0 0 0 0 0 0 0 0 0 0 0 0 0 0 0 127 0"/>
<feOffset dy="4"/>
<feGaussianBlur stdDeviation="2"/>
<feColorMatrix type="matrix" values="0 0 0 0 0 0 0 0 0 0 0 0 0 0 0 0 0 0 0.25 0"/>
<feBlend mode="normal" in2="BackgroundImageFix" result="effect1_dropShadow"/>
<feBlend mode="normal" in="SourceGraphic" in2="effect1_dropShadow" result="shape"/>
</filter>
</defs>
</svg>
