<?xml version="1.0" encoding="iso-8859-1"?>
<!-- Generator: Adobe Illustrator 23.0.1, SVG Export Plug-In . SVG Version: 6.00 Build 0)  -->
<svg version="1.1" id="Layer_1" xmlns="http://www.w3.org/2000/svg" xmlns:xlink="http://www.w3.org/1999/xlink" x="0px" y="0px"
	 viewBox="0 0 52.043 45.891" style="enable-background:new 0 0 52.043 45.891;" xml:space="preserve">
<g>
	<defs>
		<rect id="SVGID_1_" y="0" width="52.043" height="45.891"/>
	</defs>
	<clipPath id="SVGID_2_">
		<use xlink:href="#SVGID_1_"  style="overflow:visible;"/>
	</clipPath>
	<path style="clip-path:url(#SVGID_2_);fill:#B2CD94;" d="M47.539,23.004c0,12.145-9.846,21.991-21.99,21.991
		c-12.146,0-21.991-9.846-21.991-21.991c0-12.146,9.845-21.991,21.991-21.991C37.693,1.013,47.539,10.858,47.539,23.004"/>
	<path style="clip-path:url(#SVGID_2_);" d="M5.491,16.308C3.73,14.327,1.28,10.529,1.28,10.529l7.378-1.265
		c0,0,4.267-0.46,3.333,2.329l-1.9,5.204C10.091,16.797,8.557,19.758,5.491,16.308"/>
	<path style="clip-path:url(#SVGID_2_);fill:none;stroke:#000000;stroke-miterlimit:10;" d="M5.491,16.308
		C3.73,14.327,1.28,10.529,1.28,10.529l7.378-1.265c0,0,4.267-0.46,3.333,2.329l-1.9,5.204C10.091,16.797,8.557,19.758,5.491,16.308
		z"/>
	<path style="clip-path:url(#SVGID_2_);fill:none;stroke:#000000;stroke-width:1.5;stroke-miterlimit:10;" d="M11.162,14.386
		c0,0,13.201,3.032,12.664,18.997"/>
	<path style="clip-path:url(#SVGID_2_);fill:none;stroke:#000000;stroke-width:1.5;stroke-miterlimit:10;" d="M23.695,29.76
		c0,0-0.674-2.683-5.235-3.756"/>
	<path style="clip-path:url(#SVGID_2_);" d="M16.68,23.036c-1.458,0.081-3.798,0.592-3.798,0.592l3.254,3.319
		c0,0,1.963,1.815,2.336,0.39l0.618-2.721C19.09,24.616,19.219,22.894,16.68,23.036"/>
	<path style="clip-path:url(#SVGID_2_);fill:none;stroke:#000000;stroke-miterlimit:10;" d="M16.68,23.036
		c-1.458,0.081-3.798,0.592-3.798,0.592l3.254,3.319c0,0,1.963,1.815,2.336,0.39l0.618-2.721
		C19.09,24.616,19.219,22.894,16.68,23.036z"/>
	
		<path style="clip-path:url(#SVGID_2_);fill:none;stroke:#000000;stroke-width:1.8;stroke-miterlimit:10;stroke-dasharray:4.999,4.999;" d="
		M44.321,22.243c0.072,1.81-0.109,3.57-0.514,5.248c-1.951,8.093-9.078,14.249-17.808,14.598
		c-10.54,0.42-19.426-7.784-19.846-18.324C5.733,13.225,13.936,4.34,24.476,3.92C35.016,3.5,43.901,11.703,44.321,22.243z"/>
	<path style="clip-path:url(#SVGID_2_);" d="M29.858,29.624c0,0,2.658,0.35,2.585-2.138c-0.067-2.314-0.501-5.385,4.928-7.606
		c5.429-2.22,8.735,3.622,8.735,3.622s0.826,1.535,0.679,3.541c-0.149,2.007,1.8,2.981,2.862,2.656s1.771,1.239,1.505,2.007
		c-0.266,0.767-0.915,1.977-2.922,1.386c-2.007-0.59-3.356-1.254-4.308-3.364c-0.674-1.496-0.501-2.833-0.501-2.833
		S43.653,23.62,40.512,23c-3.141-0.619-4.439,1.801-4.557,3.482c-0.118,1.683-0.266,3.719-2.538,5.43
		c-2.272,1.712-4.288,1.13-4.721,0.65c-0.529-0.588-0.355-1.919-0.355-1.919S28.642,29.416,29.858,29.624"/>
	<path style="clip-path:url(#SVGID_2_);fill:none;stroke:#000000;stroke-width:0.5;stroke-miterlimit:10;" d="M29.858,29.624
		c0,0,2.658,0.35,2.585-2.138c-0.067-2.314-0.501-5.385,4.928-7.606c5.429-2.22,8.735,3.622,8.735,3.622s0.826,1.535,0.679,3.541
		c-0.149,2.007,1.8,2.981,2.862,2.656s1.771,1.239,1.505,2.007c-0.266,0.767-0.915,1.977-2.922,1.386
		c-2.007-0.59-3.356-1.254-4.308-3.364c-0.674-1.496-0.501-2.833-0.501-2.833S43.653,23.62,40.512,23
		c-3.141-0.619-4.439,1.801-4.557,3.482c-0.118,1.683-0.266,3.719-2.538,5.43c-2.272,1.712-4.288,1.13-4.721,0.65
		c-0.529-0.588-0.355-1.919-0.355-1.919S28.642,29.416,29.858,29.624z"/>
	<path style="clip-path:url(#SVGID_2_);fill:#B2CD94;" d="M30.669,30.814c0,0.298-0.241,0.54-0.54,0.54
		c-0.298,0-0.54-0.242-0.54-0.54c0-0.298,0.242-0.54,0.54-0.54C30.428,30.274,30.669,30.516,30.669,30.814"/>
	<line style="clip-path:url(#SVGID_2_);fill:#FFFFFF;" x1="32.394" y1="23.123" x2="37.007" y2="25.325"/>
	
		<line style="clip-path:url(#SVGID_2_);fill:none;stroke:#B2CD94;stroke-width:0.5;stroke-miterlimit:10;" x1="32.394" y1="23.123" x2="37.007" y2="25.325"/>
	<line style="clip-path:url(#SVGID_2_);fill:#FFFFFF;" x1="31.323" y1="28.071" x2="36.207" y2="29.582"/>
	
		<line style="clip-path:url(#SVGID_2_);fill:none;stroke:#B2CD94;stroke-width:0.5;stroke-miterlimit:10;" x1="31.323" y1="28.071" x2="36.207" y2="29.582"/>
	<line style="clip-path:url(#SVGID_2_);fill:#FFFFFF;" x1="37.66" y1="18.451" x2="39.393" y2="24.208"/>
	
		<line style="clip-path:url(#SVGID_2_);fill:none;stroke:#B2CD94;stroke-width:0.5;stroke-miterlimit:10;" x1="37.66" y1="18.451" x2="39.393" y2="24.208"/>
	<line style="clip-path:url(#SVGID_2_);fill:#FFFFFF;" x1="45.175" y1="20.559" x2="41.156" y2="24.937"/>
	
		<line style="clip-path:url(#SVGID_2_);fill:none;stroke:#B2CD94;stroke-width:0.5;stroke-miterlimit:10;" x1="45.175" y1="20.559" x2="41.156" y2="24.937"/>
	<line style="clip-path:url(#SVGID_2_);fill:#FFFFFF;" x1="47.105" y1="26.442" x2="42.28" y2="26.933"/>
	
		<line style="clip-path:url(#SVGID_2_);fill:none;stroke:#B2CD94;stroke-width:0.5;stroke-miterlimit:10;" x1="47.105" y1="26.442" x2="42.28" y2="26.933"/>
	<line style="clip-path:url(#SVGID_2_);fill:#FFFFFF;" x1="48.397" y1="29.008" x2="45.814" y2="33.7"/>
	
		<line style="clip-path:url(#SVGID_2_);fill:none;stroke:#FFFFFF;stroke-width:0.5;stroke-miterlimit:10;" x1="48.397" y1="29.008" x2="45.814" y2="33.7"/>
</g>
</svg>
