<svg width="24" height="24" viewBox="0 0 24 24" fill="none" xmlns="http://www.w3.org/2000/svg">
<path d="M0 12C0 5.37258 5.37258 0 12 0C18.6274 0 24 5.37258 24 12C24 18.6274 18.6274 24 12 24C5.37258 24 0 18.6274 0 12Z" fill="#C3EE8D"/>
<path d="M11.4 12H10.092C10.572 12.3 11.01 12.642 11.4 13.008V12ZM9 11.4C9.162 8.328 10.422 6 12 6C13.596 6 14.862 8.364 15 11.472C15.9 11.058 16.902 10.8 18 10.8C14.55 12.342 15.75 18 12 18C8.4 18 9.558 12.342 6 10.8C7.092 10.8 8.1 11.04 9 11.4ZM11.4 11.4V10.2H9.744L9.618 11.4H11.4ZM11.4 9.6V8.4H10.23C10.08 8.76 9.96 9.162 9.858 9.6H11.4ZM11.4 7.8V6.78C11.07 6.978 10.77 7.332 10.5 7.8H11.4ZM12 6.6V7.8H12.6V8.4H12V9.6H13.2V10.2H12V11.4H13.8V12H12V13.2H13.2V13.8H12.138C12.852 14.67 13.29 15.6 13.392 16.338C13.986 15.336 14.376 13.704 14.4 11.856C14.364 9 13.278 6.6 12 6.6Z" fill="black"/>
</svg>
