<?xml version="1.0" encoding="iso-8859-1"?>
<!-- Generator: Adobe Illustrator 23.0.1, SVG Export Plug-In . SVG Version: 6.00 Build 0)  -->
<svg version="1.1" id="Layer_1" xmlns="http://www.w3.org/2000/svg" xmlns:xlink="http://www.w3.org/1999/xlink" x="0px" y="0px"
	 viewBox="0 0 45.407 46.131" style="enable-background:new 0 0 45.407 46.131;" xml:space="preserve">
<g>
	<defs>
		<rect id="SVGID_1_" y="0" width="45.407" height="46.131"/>
	</defs>
	<clipPath id="SVGID_2_">
		<use xlink:href="#SVGID_1_"  style="overflow:visible;"/>
	</clipPath>
	<path style="clip-path:url(#SVGID_2_);fill:#F2E9A0;" d="M44.684,22.678c0,12.145-9.846,21.991-21.991,21.991
		s-21.99-9.846-21.99-21.991s9.845-21.991,21.99-21.991S44.684,10.533,44.684,22.678"/>
	<line style="clip-path:url(#SVGID_2_);" x1="22.417" y1="16.67" x2="8.486" y2="16.67"/>
	
		<line style="clip-path:url(#SVGID_2_);fill:none;stroke:#000000;stroke-miterlimit:10;" x1="22.417" y1="16.67" x2="8.486" y2="16.67"/>
	<line style="clip-path:url(#SVGID_2_);" x1="29.365" y1="44.669" x2="15.435" y2="44.669"/>
	
		<line style="clip-path:url(#SVGID_2_);fill:none;stroke:#000000;stroke-width:1.5;stroke-miterlimit:10;" x1="29.365" y1="44.669" x2="15.435" y2="44.669"/>
	<line style="clip-path:url(#SVGID_2_);" x1="22.417" y1="10.139" x2="22.417" y2="41.011"/>
	
		<line style="clip-path:url(#SVGID_2_);fill:none;stroke:#000000;stroke-miterlimit:10;" x1="22.417" y1="10.139" x2="22.417" y2="41.011"/>
	<path style="clip-path:url(#SVGID_2_);" d="M24.429,8.539c0,1.12-0.908,2.028-2.028,2.028c-1.12,0-2.029-0.908-2.029-2.028
		c0-1.12,0.909-2.028,2.029-2.028C23.521,6.511,24.429,7.419,24.429,8.539"/>
	<path style="clip-path:url(#SVGID_2_);fill:none;stroke:#000000;stroke-miterlimit:10;" d="M24.429,8.539
		c0,1.12-0.908,2.028-2.028,2.028c-1.12,0-2.029-0.908-2.029-2.028c0-1.12,0.909-2.028,2.029-2.028
		C23.521,6.511,24.429,7.419,24.429,8.539z"/>
	<polygon style="clip-path:url(#SVGID_2_);fill:none;stroke:#000000;stroke-miterlimit:10;" points="12.597,23.769 8.836,17.502 
		5.076,23.769 	"/>
	<path style="clip-path:url(#SVGID_2_);" d="M13.212,23.918c0,0,0.537,4.453-4.376,4.453c-4.912,0-4.375-4.453-4.375-4.453"/>
	<path style="clip-path:url(#SVGID_2_);fill:none;stroke:#000000;stroke-miterlimit:10;" d="M13.212,23.918
		c0,0,0.537,4.453-4.376,4.453c-4.912,0-4.375-4.453-4.375-4.453"/>
	<line style="clip-path:url(#SVGID_2_);" x1="22.417" y1="16.67" x2="36.348" y2="16.67"/>
	
		<line style="clip-path:url(#SVGID_2_);fill:none;stroke:#000000;stroke-miterlimit:10;" x1="22.417" y1="16.67" x2="36.348" y2="16.67"/>
	<polygon style="clip-path:url(#SVGID_2_);fill:none;stroke:#000000;stroke-miterlimit:10;" points="32.237,23.769 35.998,17.502 
		39.758,23.769 	"/>
	<path style="clip-path:url(#SVGID_2_);" d="M31.622,23.918c0,0-0.537,4.453,4.376,4.453c4.912,0,4.375-4.453,4.375-4.453"/>
	<path style="clip-path:url(#SVGID_2_);fill:none;stroke:#000000;stroke-linejoin:round;stroke-miterlimit:10;" d="M31.622,23.918
		c0,0-0.537,4.453,4.376,4.453c4.912,0,4.375-4.453,4.375-4.453"/>
	<path style="clip-path:url(#SVGID_2_);" d="M18.026,44.669c0,0-0.538-4.453,4.375-4.453s4.376,4.453,4.376,4.453"/>
	<path style="clip-path:url(#SVGID_2_);fill:none;stroke:#000000;stroke-miterlimit:10;" d="M18.026,44.669
		c0,0-0.538-4.453,4.375-4.453s4.376,4.453,4.376,4.453"/>
</g>
</svg>
