<?xml version="1.0" encoding="iso-8859-1"?>
<!-- Generator: Adobe Illustrator 23.0.1, SVG Export Plug-In . SVG Version: 6.00 Build 0)  -->
<svg version="1.1" id="Layer_1" xmlns="http://www.w3.org/2000/svg" xmlns:xlink="http://www.w3.org/1999/xlink" x="0px" y="0px"
	 viewBox="0 0 45.724 45.891" style="enable-background:new 0 0 45.724 45.891;" xml:space="preserve">
<g>
	<defs>
		<rect id="SVGID_1_" y="0" width="45.724" height="45.891"/>
	</defs>
	<clipPath id="SVGID_2_">
		<use xlink:href="#SVGID_1_"  style="overflow:visible;"/>
	</clipPath>
	<path style="clip-path:url(#SVGID_2_);fill:#B2CD94;" d="M44.894,22.981c0,12.145-9.846,21.991-21.991,21.991
		s-21.99-9.846-21.99-21.991c0-12.146,9.845-21.991,21.99-21.991S44.894,10.835,44.894,22.981"/>
	<path style="clip-path:url(#SVGID_2_);" d="M15.793,23.062c0,0,6.814-7.087,11.994,0c5.179,7.087,10.91,19.089,10.91,19.089H9.169
		H6.073C6.073,42.151,11.741,27.183,15.793,23.062"/>
	<path style="clip-path:url(#SVGID_2_);fill:none;stroke:#000000;stroke-linejoin:round;stroke-miterlimit:10;" d="M15.793,23.062
		c0,0,6.814-7.087,11.994,0c5.179,7.087,10.91,19.089,10.91,19.089H9.169H6.073C6.073,42.151,11.741,27.183,15.793,23.062z"/>
	<path style="clip-path:url(#SVGID_2_);" d="M26.786,12.263c0.685-1.404,1.463-3.931,1.463-3.931l-4.483,0.606
		c0,0-2.545,0.5-1.536,1.873l1.976,2.535C24.206,13.346,25.593,14.708,26.786,12.263"/>
	<path style="clip-path:url(#SVGID_2_);fill:none;stroke:#000000;stroke-miterlimit:10;" d="M26.786,12.263
		c0.685-1.404,1.463-3.931,1.463-3.931l-4.483,0.606c0,0-2.545,0.5-1.536,1.873l1.976,2.535
		C24.206,13.346,25.593,14.708,26.786,12.263z"/>
	<path style="clip-path:url(#SVGID_2_);" d="M15.45,11.036c-1.347,0.075-3.508,0.547-3.508,0.547l3.006,3.066
		c0,0,1.813,1.677,2.157,0.36l0.572-2.513C17.677,12.496,17.797,10.906,15.45,11.036"/>
	<path style="clip-path:url(#SVGID_2_);fill:none;stroke:#000000;stroke-miterlimit:10;" d="M15.45,11.036
		c-1.347,0.075-3.508,0.547-3.508,0.547l3.006,3.066c0,0,1.813,1.677,2.157,0.36l0.572-2.513
		C17.677,12.496,17.797,10.906,15.45,11.036z"/>
	<path style="clip-path:url(#SVGID_2_);fill:none;stroke:#000000;stroke-miterlimit:10;" d="M21.078,20.954
		c0.398-0.942-2.283-7.415,2.261-8.721"/>
	<path style="clip-path:url(#SVGID_2_);fill:none;stroke:#000000;stroke-miterlimit:10;" d="M20.795,17.112
		c-0.263-0.158-0.587-3.338-3.647-3.505"/>
	<path style="clip-path:url(#SVGID_2_);fill:#B2CD94;" d="M18.476,24.969c0,0.346-0.28,0.626-0.627,0.626
		c-0.346,0-0.626-0.28-0.626-0.626c0-0.346,0.28-0.627,0.626-0.627C18.196,24.342,18.476,24.623,18.476,24.969"/>
	<path style="clip-path:url(#SVGID_2_);fill:#B2CD94;" d="M19.67,28.018c0,0.346-0.28,0.626-0.627,0.626
		c-0.346,0-0.626-0.28-0.626-0.626c0-0.346,0.28-0.627,0.626-0.627C19.39,27.391,19.67,27.672,19.67,28.018"/>
	<path style="clip-path:url(#SVGID_2_);fill:#B2CD94;" d="M14.313,29.69c0,0.346-0.281,0.627-0.627,0.627
		c-0.347,0-0.627-0.281-0.627-0.627c0-0.346,0.28-0.626,0.627-0.626C14.032,29.064,14.313,29.344,14.313,29.69"/>
</g>
</svg>
