<svg width="24" height="24" viewBox="0 0 24 24" fill="none" xmlns="http://www.w3.org/2000/svg">
<path d="M0 12C0 5.37258 5.37258 0 12 0C18.6274 0 24 5.37258 24 12C24 18.6274 18.6274 24 12 24C5.37258 24 0 18.6274 0 12Z" fill="#FFEE9A"/>
<path d="M3 7H21V16.7627H20.325C20.325 15.3064 19.011 14.1186 17.4 14.1186C16.221 14.1186 15.222 14.7614 14.754 15.6725C14.529 15.5912 14.286 15.5424 14.025 15.5424C13.143 15.5424 12.405 16.0549 12.126 16.7627H3V7ZM10.533 9.53017C10.479 9.6522 10.443 9.78237 10.434 9.91254C10.425 10.0427 10.425 10.181 10.443 10.3193L10.461 10.3844C10.47 10.4332 10.479 10.4983 10.506 10.5715C10.524 10.6529 10.56 10.7342 10.596 10.8237C10.623 10.9132 10.677 11.0027 10.731 11.0922C10.794 11.1898 10.866 11.2712 10.938 11.3444C11.01 11.4176 11.1 11.4827 11.217 11.5315C11.325 11.5803 11.442 11.6047 11.577 11.6047C11.703 11.6047 11.82 11.5803 11.928 11.5315C12.036 11.4827 12.126 11.4176 12.198 11.3525C12.279 11.2793 12.342 11.1898 12.396 11.0922C12.459 10.9946 12.504 10.9051 12.54 10.8237C12.576 10.7424 12.603 10.661 12.621 10.5715C12.648 10.482 12.657 10.4251 12.666 10.3925C12.675 10.36 12.675 10.3356 12.675 10.3193C12.72 10.0834 12.702 9.86373 12.639 9.6522C12.576 9.44068 12.45 9.26169 12.27 9.11525C12.081 8.96881 11.847 8.89559 11.559 8.89559C11.388 8.89559 11.235 8.92 11.091 8.97695C10.956 9.0339 10.839 9.10712 10.749 9.20475C10.668 9.29424 10.596 9.40814 10.533 9.53017ZM14.565 14.4441V13.5166C14.565 13.2481 14.475 12.9797 14.304 12.7193C14.133 12.459 13.899 12.2393 13.611 12.0766C13.323 11.9058 13.017 11.8244 12.693 11.8244L11.577 12.5078L10.425 11.8407C10.092 11.8407 9.777 11.922 9.489 12.0847C9.21 12.2475 8.985 12.459 8.823 12.7112C8.661 12.9715 8.58 13.24 8.58 13.5166V14.4441L8.742 14.4847C8.85 14.5173 9.003 14.5498 9.201 14.5986C9.408 14.6393 9.624 14.68 9.867 14.7207C10.101 14.7614 10.38 14.7939 10.686 14.8264C10.992 14.8508 11.289 14.8671 11.577 14.8671C11.847 14.8671 12.144 14.8508 12.459 14.8264C12.765 14.7939 13.035 14.7614 13.26 14.7207C13.485 14.6881 13.71 14.6393 13.944 14.5905L14.394 14.4929C14.466 14.4766 14.52 14.4603 14.565 14.4441ZM17.4 14.5254C18.768 14.5254 19.875 15.5261 19.875 16.7627C19.875 17.9993 18.768 19 17.4 19C16.743 19 16.158 18.7559 15.717 18.3736C16.0102 17.9729 16.1162 17.4836 16.0116 17.0126C15.9071 16.5415 15.6005 16.1271 15.159 15.8597C15.546 15.0786 16.392 14.5254 17.4 14.5254ZM12.45 17.3729C12.45 16.5919 13.161 15.9492 14.025 15.9492C14.889 15.9492 15.6 16.5919 15.6 17.3729C15.6 18.1539 14.889 18.7966 14.025 18.7966C13.161 18.7966 12.45 18.1539 12.45 17.3729Z" fill="black"/>
</svg>
