<svg width="24" height="24" viewBox="0 0 24 24" fill="none" xmlns="http://www.w3.org/2000/svg">
<path d="M0 12C0 5.37258 5.37258 0 12 0C18.6274 0 24 5.37258 24 12C24 18.6274 18.6274 24 12 24C5.37258 24 0 18.6274 0 12Z" fill="#C3EE8D"/>
<path d="M10.2353 14.3077C10.4522 14.1875 10.7197 14.0805 11.0377 13.9868C11.3557 13.893 11.6765 13.8462 12 13.8462C12.6103 13.8462 13.1985 14 13.7647 14.3077C13.7206 13.9183 13.7408 13.5445 13.8254 13.1863C13.9099 12.8281 14.0515 12.4135 14.25 11.9423H13.3842C13.2592 11.9423 13.1517 11.881 13.0616 11.7584C12.9715 11.6358 12.9265 11.4904 12.9265 11.3221C12.9265 11.1538 12.9715 11.0084 13.0616 10.8858C13.1517 10.7632 13.2592 10.7019 13.3842 10.7019H14.5368C14.5625 10.2115 14.5653 9.87861 14.545 9.70312C14.5248 9.52764 14.4743 9.38702 14.3934 9.28125C14.2757 9.13221 14.0754 9.00962 13.7923 8.91346C13.5092 8.81731 13.2647 8.76923 13.0588 8.76923H10.9412C10.7353 8.76923 10.4926 8.81731 10.2132 8.91346C9.93382 9.00962 9.73529 9.13221 9.61765 9.28125C9.53676 9.38702 9.48621 9.52764 9.46599 9.70312C9.44577 9.87861 9.44853 10.2115 9.47426 10.7019H10.6213C10.7463 10.7019 10.8548 10.7632 10.9467 10.8858C11.0386 11.0084 11.0846 11.1538 11.0846 11.3221C11.0846 11.4904 11.0386 11.6358 10.9467 11.7584C10.8548 11.881 10.7463 11.9423 10.6213 11.9423H9.76103C9.95588 12.4038 10.0947 12.8161 10.1774 13.1791C10.2601 13.5421 10.2794 13.9183 10.2353 14.3077ZM10.2353 7.38462H13.7647C13.989 7.38462 14.2243 7.53846 14.4706 7.84615C14.6544 7.84615 14.8199 7.83053 14.9669 7.79928C15.114 7.76803 15.2454 7.71875 15.3612 7.65144C15.477 7.58413 15.5754 7.51683 15.6562 7.44952C15.7371 7.38221 15.8217 7.28365 15.9099 7.15385C15.9982 7.02404 16.0689 6.91466 16.1222 6.82572C16.1756 6.73678 16.2509 6.60337 16.3483 6.42548C16.4458 6.2476 16.5257 6.10577 16.5882 6C16.6691 6.28846 16.7142 6.5601 16.7233 6.8149C16.7325 7.06971 16.7114 7.28966 16.6599 7.47476C16.6085 7.65986 16.5349 7.83053 16.4393 7.98678C16.3438 8.14303 16.239 8.27163 16.125 8.3726C16.011 8.47356 15.8869 8.5613 15.7528 8.63582C15.6186 8.71034 15.4926 8.76562 15.375 8.80168C15.2574 8.83774 15.1452 8.86298 15.0386 8.8774C15.0643 9.00721 15.0928 9.21875 15.1241 9.51202C15.1553 9.80529 15.1728 10.0192 15.1765 10.1538C15.2059 10.1154 15.4476 9.95433 15.9017 9.67067C16.3557 9.38702 16.5993 9.24519 16.6324 9.24519C16.6728 9.24519 16.7904 9.34375 16.9853 9.54087C17.1801 9.73798 17.3879 9.95673 17.6085 10.1971C17.829 10.4375 17.9596 10.5769 18 10.6154C17.8493 10.75 17.7224 10.893 17.6195 11.0445C17.5165 11.1959 17.443 11.3233 17.3989 11.4267C17.3548 11.53 17.3042 11.6274 17.2472 11.7188C17.1903 11.8101 17.1103 11.8798 17.0074 11.9279C16.9044 11.976 16.7647 12 16.5882 12C16.4485 12 16.3125 11.97 16.1801 11.9099C16.0478 11.8498 15.9145 11.756 15.7803 11.6286C15.6461 11.5012 15.5432 11.3966 15.4715 11.3149C15.3998 11.2332 15.2996 11.1106 15.171 10.9471C15.1452 11.3173 15.0928 11.6562 15.0138 11.9639C14.9347 12.2716 14.8566 12.5132 14.7794 12.6887C14.7022 12.8642 14.6324 13.0925 14.5699 13.3738C14.5074 13.655 14.4743 13.9663 14.4706 14.3077C14.4669 14.5192 14.5248 14.8438 14.6443 15.2812C14.7638 15.7188 14.8235 16.0096 14.8235 16.1538C14.8235 16.4423 14.7546 16.7007 14.6167 16.9291C14.4789 17.1575 14.3079 17.3365 14.1039 17.4663C13.8998 17.5962 13.6645 17.7031 13.398 17.7873C13.1314 17.8714 12.8851 17.9279 12.659 17.9567C12.4329 17.9856 12.2132 18 12 18C11.7868 18 11.5671 17.9856 11.341 17.9567C11.1149 17.9279 10.8686 17.8714 10.602 17.7873C10.3355 17.7031 10.1002 17.5962 9.89614 17.4663C9.6921 17.3365 9.52114 17.1575 9.38327 16.9291C9.2454 16.7007 9.17647 16.4423 9.17647 16.1538C9.17647 16.0096 9.23621 15.7188 9.3557 15.2812C9.47518 14.8438 9.53309 14.5192 9.52941 14.3077C9.52574 13.9663 9.49265 13.655 9.43015 13.3738C9.36765 13.0925 9.29779 12.8642 9.22059 12.6887C9.14338 12.5132 9.06526 12.2716 8.98621 11.9639C8.90717 11.6562 8.85478 11.3173 8.82904 10.9471C8.70037 11.1106 8.60018 11.2332 8.52849 11.3149C8.4568 11.3966 8.35386 11.5012 8.21967 11.6286C8.08548 11.756 7.95221 11.8498 7.81985 11.9099C7.6875 11.97 7.55147 12 7.41176 12C7.23529 12 7.09559 11.976 6.99265 11.9279C6.88971 11.8798 6.80974 11.8101 6.75276 11.7188C6.69577 11.6274 6.64522 11.53 6.6011 11.4267C6.55699 11.3233 6.48346 11.1959 6.38051 11.0445C6.27757 10.893 6.15074 10.75 6 10.6154C6.03676 10.5817 6.16728 10.4435 6.39154 10.2007C6.61581 9.95793 6.82537 9.73798 7.02022 9.54087C7.21507 9.34375 7.33272 9.24519 7.37316 9.24519C7.40625 9.24519 7.6489 9.38702 8.1011 9.67067C8.55331 9.95433 8.79412 10.1154 8.82353 10.1538C8.82721 10.0192 8.84559 9.80529 8.87868 9.51202C8.91176 9.21875 8.94118 9.00721 8.96691 8.8774C8.86029 8.86298 8.74816 8.83774 8.63051 8.80168C8.51287 8.76562 8.38695 8.71034 8.25276 8.63582C8.11857 8.5613 7.99357 8.47356 7.87776 8.3726C7.76195 8.27163 7.65625 8.14303 7.56066 7.98678C7.46507 7.83053 7.39246 7.65986 7.34283 7.47476C7.2932 7.28966 7.27206 7.06971 7.27941 6.8149C7.28676 6.5601 7.33088 6.28846 7.41176 6C7.47426 6.10577 7.55423 6.2476 7.65165 6.42548C7.74908 6.60337 7.82445 6.73678 7.87776 6.82572C7.93107 6.91466 8.00184 7.02404 8.09007 7.15385C8.17831 7.28365 8.26287 7.38221 8.34375 7.44952C8.42463 7.51683 8.52298 7.58413 8.63879 7.65144C8.7546 7.71875 8.88603 7.76803 9.03309 7.79928C9.18015 7.83053 9.34559 7.84615 9.52941 7.84615C9.77574 7.53846 10.011 7.38462 10.2353 7.38462ZM13.2794 15.0505C13.1397 15.0505 13.0248 15.1022 12.9347 15.2055C12.8447 15.3089 12.7996 15.4471 12.7996 15.6202V16.1899C12.7996 16.363 12.8447 16.5012 12.9347 16.6046C13.0248 16.7079 13.1397 16.7596 13.2794 16.7596C13.4154 16.7596 13.5294 16.7079 13.6213 16.6046C13.7132 16.5012 13.7592 16.363 13.7592 16.1899V15.6202C13.7592 15.4471 13.7132 15.3089 13.6213 15.2055C13.5294 15.1022 13.4154 15.0505 13.2794 15.0505ZM10.7206 15.0505C10.5846 15.0505 10.4706 15.1022 10.3787 15.2055C10.2868 15.3089 10.2408 15.4471 10.2408 15.6202V16.1899C10.2408 16.363 10.2868 16.5012 10.3787 16.6046C10.4706 16.7079 10.5846 16.7596 10.7206 16.7596C10.8603 16.7596 10.9752 16.7079 11.0653 16.6046C11.1553 16.5012 11.2004 16.363 11.2004 16.1899V15.6202C11.2004 15.4471 11.1553 15.3089 11.0653 15.2055C10.9752 15.1022 10.8603 15.0505 10.7206 15.0505Z" fill="black"/>
</svg>
